<?xml version="1.0" encoding="UTF-8"?>
<svg version="1.1" xmlns="http://www.w3.org/2000/svg" width="50" height="50">
<path d="M0 0 C5.56340585 3.36669624 9.53349183 8.25193794 11.5 14.4375 C12.30594257 22.2813829 12.59671889 30.02934467 7.5 36.4375 C3.04867668 41.14197914 -1.19064516 44.09747071 -7.76953125 44.7734375 C-16.04371997 44.8646634 -22.08428015 44.61560264 -28.2421875 38.7890625 C-34.17397269 32.28964236 -34.96296445 26.57688134 -34.80859375 17.88671875 C-34.22339005 11.3457711 -31.85547257 7.43687235 -27.0625 3.0625 C-19.84507341 -2.93248543 -8.52200107 -3.84066973 0 0 Z M-10.5 12.4375 C-10.5 18.3775 -10.5 24.3175 -10.5 30.4375 C-7.53 30.1075 -4.56 29.7775 -1.5 29.4375 C-1.5 29.1075 -1.5 28.7775 -1.5 28.4375 C-3.81 28.4375 -6.12 28.4375 -8.5 28.4375 C-8.5 23.8175 -8.5 19.1975 -8.5 14.4375 C-6.19 14.4375 -3.88 14.4375 -1.5 14.4375 C-4.96214649 12.38585763 -6.09389235 12.4375 -10.5 12.4375 Z M-16.5 14.4375 C-16.5 16.0875 -16.5 17.7375 -16.5 19.4375 C-15.84 18.4475 -15.18 17.4575 -14.5 16.4375 C-15.16 15.7775 -15.82 15.1175 -16.5 14.4375 Z M-24.5 15.4375 C-23.5 17.4375 -23.5 17.4375 -23.5 17.4375 Z M1.5 17.4375 C1.5 20.0775 1.5 22.7175 1.5 25.4375 C1.83 25.4375 2.16 25.4375 2.5 25.4375 C2.5 22.7975 2.5 20.1575 2.5 17.4375 C2.17 17.4375 1.84 17.4375 1.5 17.4375 Z M-15.5 22.4375 C-15.5 24.0875 -15.5 25.7375 -15.5 27.4375 C-15.17 27.4375 -14.84 27.4375 -14.5 27.4375 C-14.5 25.7875 -14.5 24.1375 -14.5 22.4375 C-14.83 22.4375 -15.16 22.4375 -15.5 22.4375 Z M-24.5 25.4375 C-23.5 27.4375 -23.5 27.4375 -23.5 27.4375 Z " fill="#727272" transform="translate(36.5,3.5625)"/>
</svg>
