<svg width="24" height="24" viewBox="0 0 24 24" fill="none" xmlns="http://www.w3.org/2000/svg">
<path d="M16.1143 8.19346C16.4369 8.51278 16.4395 9.02958 16.1202 9.34674L14.0148 11.4737L15.1936 16.4672L14.4305 17.2436L12.2991 13.2124L10.1884 15.3448L10.391 16.6875L9.8119 17.2671L8.84564 15.5421L7.10536 14.5881L7.67901 13.9976L9.04004 14.1919L11.1346 12.0759L7.08181 9.96949L7.85038 9.19851L12.8556 10.3263L14.961 8.19934C15.264 7.88226 15.808 7.87949 16.1143 8.19346Z" fill="white"/>
<path d="M5.15499 6.84493L6.20805 7.63802L5.81151 8.16455L4.75844 7.37146L5.15499 6.84493ZM4.13411 8.68035L5.36054 9.14025L5.16602 9.6374L5.15749 9.68378L5.0167 10.1446L5.00752 10.1897L4.99562 10.2055L3.70751 9.93269L3.72741 9.87011L3.72431 9.84136L3.737 9.82451L3.90648 9.25653L3.91917 9.23968L3.91527 9.21198L4.13411 8.68035ZM10.44 0.923077L11.4931 1.71617L10.0433 3.64117C12.4332 3.08104 15.0173 3.5451 17.155 5.15507C20.9171 7.98838 21.6781 13.393 18.8448 17.1551C16.0115 20.9172 10.6069 21.6782 6.84484 18.8449L6.31831 18.4484L7.1114 17.3953L7.63793 17.7919C10.8261 20.1929 15.3907 19.5501 17.7918 16.362C20.1928 13.1738 19.5501 8.60921 16.3619 6.20814C14.2874 4.64575 11.7686 4.37443 9.52454 5.18467L12.273 7.25463L11.48 8.30769L7.2677 5.13534L10.44 0.923077ZM3.4941 11.2416L4.80481 11.3507L4.78272 11.7219L4.77353 11.767L4.78235 12.2374L4.77316 12.2825L4.7857 12.4718L3.47524 12.5683L3.45543 12.3207L3.46812 12.3039L3.46317 12.2754L3.45772 11.7019L3.46962 11.6861L3.46467 11.6576L3.4941 11.2416ZM3.64571 13.8825L4.94324 13.5972L4.98842 13.8111L4.99232 13.8388L5.13113 14.3064L5.14104 14.3634L5.27668 14.6982L4.03076 15.1528L3.88653 14.7603L3.88263 14.7326L3.86578 14.7199L3.71449 14.167L3.71138 14.1382L3.70643 14.1098L3.64571 13.8825ZM4.59682 16.3515L5.75896 15.7331L5.77476 15.745L5.79603 15.7858L6.05915 16.1903L6.08043 16.231L6.40388 16.6562L5.36901 17.4496L5.01106 17.0001L4.99058 16.9583L4.97426 16.946L4.66991 16.4593L4.65411 16.4474L4.64995 16.4179L4.59603 16.3525L4.59682 16.3515Z" fill="white"/>
</svg>
