<?xml version="1.0" encoding="UTF-8"?>
<svg version="1.1" xmlns="http://www.w3.org/2000/svg" width="50" height="50">
<path d="M0 0 C-0.875 3.875 -0.875 3.875 -2 5 C9.88 5 21.76 5 34 5 C33.34 4.34 32.68 3.68 32 3 C32 2.01 32 1.02 32 0 C36.25219775 0.47246642 38.37314725 2.77272377 41 6 C41.20186821 9.2298914 39.74906457 10.29055681 37.625 12.75 C35 15 35 15 32 15 C32.875 11.125 32.875 11.125 34 10 C22.12 10 10.24 10 -2 10 C-1.34 10.66 -0.68 11.32 0 12 C0 12.99 0 13.98 0 15 C-4.25219775 14.52753358 -6.37314725 12.22727623 -9 9 C-9.20186821 5.7701086 -7.74906457 4.70944319 -5.625 2.25 C-3 0 -3 0 0 0 Z " fill="#FFFFFF" transform="translate(9,29)"/>
<path d="M0 0 C0.99 0.33 1.98 0.66 3 1 C3.33 2.98 3.66 4.96 4 7 C4.66 7 5.32 7 6 7 C6.33 4.69 6.66 2.38 7 0 C8.32 0.33 9.64 0.66 11 1 C11.84681133 6.08086796 12.09038099 10.84828377 12 16 C11.01 16 10.02 16 9 16 C8.67 14.68 8.34 13.36 8 12 C7.896875 12.639375 7.79375 13.27875 7.6875 13.9375 C7.460625 14.618125 7.23375 15.29875 7 16 C6.01 16.33 5.02 16.66 4 17 C3.34 15.68 2.68 14.36 2 13 C1.67 13.99 1.34 14.98 1 16 C-0.32 16 -1.64 16 -3 16 C-2.69262339 13.52009745 -2.37935917 11.04119265 -2.0625 8.5625 C-1.97548828 7.85544922 -1.88847656 7.14839844 -1.79882812 6.41992188 C-1.11328125 1.11328125 -1.11328125 1.11328125 0 0 Z " fill="#FFFFFF" transform="translate(24,9)"/>
<path d="M0 0 C1.98 0 3.96 0 6 0 C6 5.28 6 10.56 6 16 C5.01 16 4.02 16 3 16 C3 11.71 3 7.42 3 3 C2.01 3 1.02 3 0 3 C0 2.01 0 1.02 0 0 Z " fill="#FFFFFF" transform="translate(13,9)"/>
</svg>
