<?xml version="1.0" encoding="UTF-8"?>
<svg version="1.1" xmlns="http://www.w3.org/2000/svg" width="26" height="26">
<path d="M0 0 C7.92 0 15.84 0 24 0 C23.875 10.375 23.875 10.375 23.81982422 13.64208984 C23.8148291 14.48980957 23.80983398 15.3375293 23.8046875 16.2109375 C23.79421387 17.08024902 23.78374023 17.94956055 23.77294922 18.84521484 C23.79404891 21.21345939 23.79404891 21.21345939 26 23 C26 23.99 26 24.98 26 26 C22.125 25.125 22.125 25.125 21 24 C19.43827255 23.91314397 17.87270656 23.89297781 16.30859375 23.90234375 C15.45837646 23.90484131 14.60815918 23.90733887 13.73217773 23.90991211 C12.64493408 23.91901611 11.55769043 23.92812012 10.4375 23.9375 C5.2709375 23.9684375 5.2709375 23.9684375 0 24 C0 16.08 0 8.16 0 0 Z M2 4 C1.979375 6.784375 1.95875 9.56875 1.9375 12.4375 C1.928396 13.31591553 1.91929199 14.19433105 1.90991211 15.09936523 C1.90276909 17.06645974 1.94968107 19.03353621 2 21 C3.03406673 22.25949049 3.03406673 22.25949049 5.28515625 22.09765625 C6.20167969 22.08605469 7.11820312 22.07445313 8.0625 22.0625 C8.98160156 22.05347656 9.90070312 22.04445313 10.84765625 22.03515625 C11.55792969 22.02355469 12.26820312 22.01195313 13 22 C12.67 19.36 12.34 16.72 12 14 C11.01 14 10.02 14 9 14 C9 13.34 9 12.68 9 12 C13.29 12.33 17.58 12.66 22 13 C22 10.03 22 7.06 22 4 C15.4 4 8.8 4 2 4 Z M16 14 C15.34 14.66 14.68 15.32 14 16 C14.3185177 18.10820797 14.3185177 18.10820797 15 20 C16.89179203 20.6814823 16.89179203 20.6814823 19 21 C19.66 20.34 20.32 19.68 21 19 C20.6814823 16.89179203 20.6814823 16.89179203 20 15 C18.10820797 14.3185177 18.10820797 14.3185177 16 14 Z " fill="#FFFFFF" transform="translate(0,0)"/>
<path d="M0 0 C3.3 0 6.6 0 10 0 C10 0.66 10 1.32 10 2 C6.7 2 3.4 2 0 2 C0 1.34 0 0.68 0 0 Z " fill="#FFFFFF" transform="translate(9,8)"/>
<path d="M0 0 C0.66 0 1.32 0 2 0 C2 0.66 2 1.32 2 2 C1.34 2 0.68 2 0 2 C0 1.34 0 0.68 0 0 Z " fill="#FFFFFF" transform="translate(9,16)"/>
<path d="M0 0 C0.66 0 1.32 0 2 0 C2 0.66 2 1.32 2 2 C1.34 2 0.68 2 0 2 C0 1.34 0 0.68 0 0 Z " fill="#FFFFFF" transform="translate(5,16)"/>
<path d="M0 0 C0.66 0 1.32 0 2 0 C2 0.66 2 1.32 2 2 C1.34 2 0.68 2 0 2 C0 1.34 0 0.68 0 0 Z " fill="#FFFFFF" transform="translate(5,12)"/>
<path d="M0 0 C0.66 0 1.32 0 2 0 C2 0.66 2 1.32 2 2 C1.34 2 0.68 2 0 2 C0 1.34 0 0.68 0 0 Z " fill="#FFFFFF" transform="translate(5,8)"/>
</svg>
