<?xml version="1.0" encoding="UTF-8"?>
<svg version="1.1" xmlns="http://www.w3.org/2000/svg" width="50" height="50">
<path d="M0 0 C5.94 0 11.88 0 18 0 C18.66 1.65 19.32 3.3 20 5 C21.3921875 4.9071875 21.3921875 4.9071875 22.8125 4.8125 C26 5 26 5 27.67431641 6.10351562 C29.62819376 8.89867571 29.38873633 11.14785234 29.3984375 14.53125 C29.40423828 16.45904297 29.40423828 16.45904297 29.41015625 18.42578125 C29.40387207 19.09432129 29.39758789 19.76286133 29.39111328 20.45166016 C29.37505354 22.4931933 29.39096671 24.53274708 29.41015625 26.57421875 C29.40628906 27.85941406 29.40242188 29.14460938 29.3984375 30.46875 C29.39505371 31.64888672 29.39166992 32.82902344 29.38818359 34.04492188 C29 37 29 37 27.74649048 38.66043091 C25.5621262 40.33585193 24.40088765 40.37966748 21.66796875 40.38818359 C20.79696533 40.39764008 19.92596191 40.40709656 19.02856445 40.4168396 C18.09101318 40.41076691 17.15346191 40.40469421 16.1875 40.3984375 C14.73960083 40.40274277 14.73960083 40.40274277 13.26245117 40.40713501 C11.22151096 40.40917661 9.18055123 40.40364007 7.13964844 40.39111328 C4.0119256 40.3750612 0.88549504 40.39095895 -2.2421875 40.41015625 C-4.22396119 40.40817384 -6.20573408 40.4043302 -8.1875 40.3984375 C-9.12505127 40.40451019 -10.06260254 40.41058289 -11.02856445 40.4168396 C-12.33506958 40.40265488 -12.33506958 40.40265488 -13.66796875 40.38818359 C-14.43391357 40.38579681 -15.1998584 40.38341003 -15.98901367 40.38095093 C-18.5538469 39.89508209 -19.44121147 39.06481133 -21 37 C-21.38818359 34.04492188 -21.38818359 34.04492188 -21.3984375 30.46875 C-21.40230469 29.18355469 -21.40617187 27.89835937 -21.41015625 26.57421875 C-21.40387207 25.90567871 -21.39758789 25.23713867 -21.39111328 24.54833984 C-21.37505354 22.5068067 -21.39096671 20.46725292 -21.41015625 18.42578125 C-21.40628906 17.14058594 -21.40242188 15.85539062 -21.3984375 14.53125 C-21.39505371 13.35111328 -21.39166992 12.17097656 -21.38818359 10.95507812 C-21 8 -21 8 -19.60009766 6.09179688 C-18 5 -18 5 -16 5 C-16 4.34 -16 3.68 -16 3 C-13.03 3 -10.06 3 -7 3 C-7 3.66 -7 4.32 -7 5 C-5.35 5 -3.7 5 -2 5 C-1.34 3.35 -0.68 1.7 0 0 Z M4 10 C4 10.33 4 10.66 4 11 C7.3 11 10.6 11 14 11 C14 10.67 14 10.34 14 10 C10.7 10 7.4 10 4 10 Z M-15 11 C-15 11.66 -15 12.32 -15 13 C-14.34 13 -13.68 13 -13 13 C-13 12.34 -13 11.68 -13 11 C-13.66 11 -14.32 11 -15 11 Z M-3 17 C-3 20.3 -3 23.6 -3 27 C-2.67 27 -2.34 27 -2 27 C-2 23.7 -2 20.4 -2 17 C-2.33 17 -2.66 17 -3 17 Z M20 17 C20 20.3 20 23.6 20 27 C20.33 27 20.66 27 21 27 C21 23.7 21 20.4 21 17 C20.67 17 20.34 17 20 17 Z M4 33 C4 33.33 4 33.66 4 34 C7.3 34 10.6 34 14 34 C14 33.67 14 33.34 14 33 C10.7 33 7.4 33 4 33 Z " fill="#FFFFFF" transform="translate(21,4)"/>
</svg>
