<?xml version="1.0" encoding="UTF-8"?>
<svg version="1.1" xmlns="http://www.w3.org/2000/svg" width="50" height="50">
<path d="M0 0 C4.62 0 9.24 0 14 0 C14 1.65 14 3.3 14 5 C17.63 5 21.26 5 25 5 C25 5.66 25 6.32 25 7 C24.34 7 23.68 7 23 7 C23.02964844 8.30839844 23.05929688 9.61679688 23.08984375 10.96484375 C23.08863817 17.80166969 22.42976464 24.57348848 21.77319336 31.37133789 C21.55997469 33.58876261 21.35672555 35.80695753 21.15429688 38.02539062 C21.02142014 39.43495127 20.88797804 40.84445877 20.75390625 42.25390625 C20.63345947 43.52564697 20.5130127 44.7973877 20.38891602 46.10766602 C20 49 20 49 19 50 C17.23140807 50.09946453 15.45888549 50.13080217 13.6875 50.1328125 C12.61242187 50.13410156 11.53734375 50.13539062 10.4296875 50.13671875 C9.29789063 50.13285156 8.16609375 50.12898438 7 50.125 C5.86820313 50.12886719 4.73640625 50.13273437 3.5703125 50.13671875 C2.49523437 50.13542969 1.42015625 50.13414063 0.3125 50.1328125 C-0.68136719 50.13168457 -1.67523438 50.13055664 -2.69921875 50.12939453 C-5 50 -5 50 -6 49 C-6.30153837 46.75748586 -6.54056061 44.50652222 -6.75390625 42.25390625 C-6.85166603 41.22619362 -6.85166603 41.22619362 -6.95140076 40.17771912 C-7.08887819 38.71935415 -7.22406717 37.26077198 -7.35717773 35.80200195 C-7.55884803 33.60233301 -7.77006402 31.40373772 -7.98242188 29.20507812 C-8.68169298 21.78533372 -9.16905502 14.46047133 -9 7 C-9.99 7 -10.98 7 -12 7 C-12 6.34 -12 5.68 -12 5 C-8.04 5 -4.08 5 0 5 C0 3.35 0 1.7 0 0 Z M3 2 C2.67 2.99 2.34 3.98 2 5 C5.3 5 8.6 5 12 5 C11.67 4.01 11.34 3.02 11 2 C8.36 2 5.72 2 3 2 Z M-6 7 C-6 13.04918139 -5.97011892 18.56742848 -5.37890625 24.50390625 C-5.31468979 25.15326645 -5.25047333 25.80262665 -5.18431091 26.47166443 C-5.04968633 27.8203014 -4.91264555 29.16869936 -4.77319336 30.5168457 C-4.55973435 32.58935213 -4.35657205 34.6627033 -4.15429688 36.73632812 C-4.11008227 42.77517517 -4.11008227 42.77517517 -2 48 C-0.66956375 48.0983721 0.66593344 48.13078592 2 48.1328125 C2.804375 48.13410156 3.60875 48.13539062 4.4375 48.13671875 C5.7059375 48.13091797 5.7059375 48.13091797 7 48.125 C7.845625 48.12886719 8.69125 48.13273437 9.5625 48.13671875 C10.366875 48.13542969 11.17125 48.13414063 12 48.1328125 C13.11375 48.13112061 13.11375 48.13112061 14.25 48.12939453 C16.02825811 48.18942216 16.02825811 48.18942216 17 47 C17.5885086 42.90112811 17.95518574 38.77751675 18.35717773 34.65649414 C18.55866505 32.60161103 18.76997942 30.54791628 18.98242188 28.49414062 C19.11518786 27.16412271 19.24736621 25.83404597 19.37890625 24.50390625 C19.4982251 23.30580322 19.61754395 22.1077002 19.74047852 20.87329102 C20.04968937 16.25839902 20 11.62523939 20 7 C11.42 7 2.84 7 -6 7 Z " fill="#FFFFFF" transform="translate(18,0)"/>
<path d="M0 0 C0.66 0 1.32 0 2 0 C2 11.55 2 23.1 2 35 C1.34 35 0.68 35 0 35 C0 23.45 0 11.9 0 0 Z " fill="#FFFFFF" transform="translate(30,10)"/>
<path d="M0 0 C0.66 0 1.32 0 2 0 C2 11.55 2 23.1 2 35 C1.34 35 0.68 35 0 35 C0 23.45 0 11.9 0 0 Z " fill="#FFFFFF" transform="translate(24,10)"/>
<path d="M0 0 C0.66 0 1.32 0 2 0 C2 11.55 2 23.1 2 35 C1.34 35 0.68 35 0 35 C0 23.45 0 11.9 0 0 Z " fill="#FFFFFF" transform="translate(18,10)"/>
</svg>
