<?xml version="1.0" encoding="UTF-8"?>
<svg version="1.1" xmlns="http://www.w3.org/2000/svg" width="64" height="64">
<path d="M0 0 C0.66 0 1.32 0 2 0 C2 0.66 2 1.32 2 2 C15.2 2 28.4 2 42 2 C42 15.86 42 29.72 42 44 C26.16 44.495 26.16 44.495 10 45 C10 45.99 10 46.98 10 48 C11.0725 47.9175 12.145 47.835 13.25 47.75 C17 48 17 48 19.375 49.6875 C21.20829306 52.29641704 21.8448278 53.81896986 22 57 C21.0638375 60.09653751 20.29576678 61.70423322 18 64 C15.72265625 64.30078125 15.72265625 64.30078125 13.0625 64.3125 C12.18722656 64.32925781 11.31195313 64.34601563 10.41015625 64.36328125 C7.54595148 63.93156157 6.73358311 63.27196296 5 61 C3.8125 58.3125 3.8125 58.3125 3 56 C1.68 56 0.36 56 -1 56 C-1.45375 56.94875 -1.9075 57.8975 -2.375 58.875 C-4 62 -4 62 -6 64 C-8.27734375 64.30078125 -8.27734375 64.30078125 -10.9375 64.3125 C-11.81277344 64.32925781 -12.68804687 64.34601563 -13.58984375 64.36328125 C-16 64 -16 64 -17.78515625 62.7578125 C-19.7315652 59.94146514 -19.53503157 57.49769048 -19.41015625 54.1640625 C-19 52 -19 52 -16.9375 49.4375 C-13.4026107 47.70766055 -10.88817732 47.69504492 -7 48 C-7.495 46.515 -7.495 46.515 -8 45 C-14.93 44.505 -14.93 44.505 -22 44 C-22 30.14 -22 16.28 -22 2 C-14.74 2 -7.48 2 0 2 C0 1.34 0 0.68 0 0 Z M-20 5 C-20.10095564 7.65456193 -20.13970998 10.28255176 -20.1328125 12.9375 C-20.13376923 13.732771 -20.13472595 14.52804199 -20.13571167 15.34741211 C-20.13639343 17.0320646 -20.13453943 18.71671971 -20.13037109 20.40136719 C-20.12502275 22.98899197 -20.13031619 25.57644316 -20.13671875 28.1640625 C-20.13605797 29.79687539 -20.1347768 31.42968816 -20.1328125 33.0625 C-20.13483673 33.84165771 -20.13686096 34.62081543 -20.13894653 35.42358398 C-20.4583958 39.007942 -20.4583958 39.007942 -19 42 C-17.58429877 42.08651611 -16.164405 42.10704904 -14.74609375 42.09765625 C-13.89208984 42.09443359 -13.03808594 42.09121094 -12.15820312 42.08789062 C-11.26037109 42.07951172 -10.36253906 42.07113281 -9.4375 42.0625 C-8.53580078 42.05798828 -7.63410156 42.05347656 -6.70507812 42.04882812 C-4.46998686 42.03700225 -2.23502563 42.0205222 0 42 C0 40.02 0 38.04 0 36 C0.66 36 1.32 36 2 36 C2.33 36.99 2.66 37.98 3 39 C7.29 34.71 11.58 30.42 16 26 C16.99 26.33 17.98 26.66 19 27 C19.97780502 30.11119779 20.23611297 31.50292007 18.8125 34.5 C16.9512023 37.06730718 14.98815571 39.53024135 13 42 C17.31248609 42.02886537 21.62494762 42.04675255 25.9375 42.0625 C27.16919922 42.07087891 28.40089844 42.07925781 29.66992188 42.08789062 C30.83974609 42.09111328 32.00957031 42.09433594 33.21484375 42.09765625 C34.29886475 42.10289307 35.38288574 42.10812988 36.49975586 42.11352539 C38.94049948 42.28426897 38.94049948 42.28426897 40 41 C40.10095564 38.34543807 40.13970998 35.71744824 40.1328125 33.0625 C40.13376923 32.267229 40.13472595 31.47195801 40.13571167 30.65258789 C40.13639343 28.9679354 40.13453943 27.28328029 40.13037109 25.59863281 C40.12502275 23.01100803 40.13031619 20.42355684 40.13671875 17.8359375 C40.13605797 16.20312461 40.1347768 14.57031184 40.1328125 12.9375 C40.13483673 12.15834229 40.13686096 11.37918457 40.13894653 10.57641602 C40.4583958 6.992058 40.4583958 6.992058 39 4 C36.26105915 3.91141354 33.5474673 3.88476521 30.80859375 3.90234375 C29.57883568 3.90446617 29.57883568 3.90446617 28.32423401 3.90663147 C25.69528618 3.91224711 23.06642227 3.92480221 20.4375 3.9375 C18.65950643 3.94251299 16.88151154 3.94707624 15.10351562 3.95117188 C10.73564455 3.96222161 6.36783652 3.97949669 2 4 C2 5.98 2 7.96 2 10 C1.34 10 0.68 10 0 10 C0 8.02 0 6.04 0 4 C-3.14581423 3.97111486 -6.29159469 3.95324077 -9.4375 3.9375 C-10.33533203 3.92912109 -11.23316406 3.92074219 -12.15820312 3.91210938 C-13.01220703 3.90888672 -13.86621094 3.90566406 -14.74609375 3.90234375 C-15.93223267 3.89448853 -15.93223267 3.89448853 -17.14233398 3.88647461 C-19.01592689 3.79504091 -19.01592689 3.79504091 -20 5 Z M16 30 C15.06933716 30.93851807 15.06933716 30.93851807 14.11987305 31.89599609 C11.81280853 34.22012119 9.50349527 36.54196405 7.19262695 38.86230469 C6.19367099 39.86628378 5.19561513 40.87115932 4.19848633 41.87695312 C2.76360007 43.32399338 1.32548866 44.76775991 -0.11328125 46.2109375 C-1.40939331 47.51490479 -1.40939331 47.51490479 -2.73168945 48.84521484 C-5 51 -5 51 -8 53 C-7.67 54.98 -7.34 56.96 -7 59 C-6.15852417 57.90860718 -6.15852417 57.90860718 -5.30004883 56.79516602 C-3.06957612 54.08455334 -0.73627536 51.70019681 1.80078125 49.27734375 C2.69474609 48.40916016 3.58871094 47.54097656 4.50976562 46.64648438 C6.39032087 44.82883272 8.27846839 43.01900582 10.17382812 41.21679688 C11.06134766 40.34990234 11.94886719 39.48300781 12.86328125 38.58984375 C14.08978394 37.41216431 14.08978394 37.41216431 15.34106445 36.21069336 C17.27840735 34.15155703 17.27840735 34.15155703 16.75854492 31.71313477 C16.38306519 30.86513306 16.38306519 30.86513306 16 30 Z M4 50 C3.66213769 52.97056503 3.66213769 52.97056503 5.375 54.5 C6.179375 55.2425 6.179375 55.2425 7 56 C7.99 57.485 7.99 57.485 9 59 C9.33 56.69 9.66 54.38 10 52 C8.02 51.34 6.04 50.68 4 50 Z M-13 51 C-9 52 -9 52 -9 52 Z M11 51 C15 52 15 52 15 52 Z M-16 53 C-16 54.98 -16 56.96 -16 59 C-15.67 59 -15.34 59 -15 59 C-15 57.02 -15 55.04 -15 53 C-15.33 53 -15.66 53 -16 53 Z M17 53 C18 56 18 56 18 56 Z M-12 55 C-12 55.99 -12 56.98 -12 58 C-11.34 58 -10.68 58 -10 58 C-10 57.01 -10 56.02 -10 55 C-10.66 55 -11.32 55 -12 55 Z M12 55 C12 55.99 12 56.98 12 58 C12.66 58 13.32 58 14 58 C14 57.01 14 56.02 14 55 C13.34 55 12.68 55 12 55 Z M17 57 C18 59 18 59 18 59 Z M-13 61 C-9 62 -9 62 -9 62 Z " fill="#FFFFFF" transform="translate(22,0)"/>
<path d="M0 0 C1.32 0 2.64 0 4 0 C4 0.66 4 1.32 4 2 C2.68 2 1.36 2 0 2 C0 1.34 0 0.68 0 0 Z " fill="#FFFFFF" transform="translate(56,37)"/>
<path d="M0 0 C1.32 0 2.64 0 4 0 C4 0.66 4 1.32 4 2 C2.68 2 1.36 2 0 2 C0 1.34 0 0.68 0 0 Z " fill="#FFFFFF" transform="translate(56,32)"/>
<path d="M0 0 C0.66 0 1.32 0 2 0 C2 1.32 2 2.64 2 4 C1.34 4 0.68 4 0 4 C0 2.68 0 1.36 0 0 Z " fill="#FFFFFF" transform="translate(22,30)"/>
<path d="M0 0 C1.32 0 2.64 0 4 0 C4 0.66 4 1.32 4 2 C2.68 2 1.36 2 0 2 C0 1.34 0 0.68 0 0 Z " fill="#FFFFFF" transform="translate(56,27)"/>
<path d="M0 0 C0.66 0 1.32 0 2 0 C2 1.32 2 2.64 2 4 C1.34 4 0.68 4 0 4 C0 2.68 0 1.36 0 0 Z " fill="#FFFFFF" transform="translate(22,24)"/>
<path d="M0 0 C1.32 0 2.64 0 4 0 C4 0.66 4 1.32 4 2 C2.68 2 1.36 2 0 2 C0 1.34 0 0.68 0 0 Z " fill="#FFFFFF" transform="translate(56,22)"/>
<path d="M0 0 C0.66 0 1.32 0 2 0 C2 1.32 2 2.64 2 4 C1.34 4 0.68 4 0 4 C0 2.68 0 1.36 0 0 Z " fill="#FFFFFF" transform="translate(22,18)"/>
<path d="M0 0 C1.32 0 2.64 0 4 0 C4 0.66 4 1.32 4 2 C2.68 2 1.36 2 0 2 C0 1.34 0 0.68 0 0 Z " fill="#FFFFFF" transform="translate(56,17)"/>
<path d="M0 0 C1.32 0 2.64 0 4 0 C4 0.66 4 1.32 4 2 C2.68 2 1.36 2 0 2 C0 1.34 0 0.68 0 0 Z " fill="#FFFFFF" transform="translate(56,12)"/>
<path d="M0 0 C0.66 0 1.32 0 2 0 C2 1.32 2 2.64 2 4 C1.34 4 0.68 4 0 4 C0 2.68 0 1.36 0 0 Z " fill="#FFFFFF" transform="translate(22,12)"/>
<path d="M0 0 C1.32 0 2.64 0 4 0 C4 0.66 4 1.32 4 2 C2.68 2 1.36 2 0 2 C0 1.34 0 0.68 0 0 Z " fill="#FFFFFF" transform="translate(56,7)"/>
</svg>
