<svg width="24" height="24" viewBox="0 0 24 24" fill="none" xmlns="http://www.w3.org/2000/svg">
<g clip-path="url(#clip0_710_5157)">
<path d="M17.7774 4.14471L16.8886 5.35299L17.4927 5.79741L18.3816 4.58913L17.7774 4.14471ZM19.4894 5.81192L18.3028 6.71365L18.6772 7.192L18.7016 7.23978L19.0056 7.69613L19.0303 7.74226L19.0484 7.75559L20.3633 7.03763L20.3212 6.97592L20.3152 6.94357L20.2959 6.92935L19.9257 6.36561L19.9063 6.35139L19.9016 6.31993L19.4894 5.81192ZM10.0833 -0.584247L9.19445 0.624036L11.4032 2.24885C8.6154 2.41868 5.95043 3.76821 4.14607 6.22103C0.970653 10.5376 1.9058 16.677 6.22239 19.8524C10.539 23.0278 16.6783 22.0927 19.8537 17.7761L20.2982 17.1719L19.0899 16.2831L18.6455 16.8872C15.9545 20.5453 10.7693 21.3351 7.11124 18.6441C3.45316 15.9531 2.66336 10.768 5.35435 7.10988C7.10538 4.72956 9.76214 3.61141 12.4726 3.76181L10.1528 6.91543L11.361 7.80428L14.9164 2.97115L10.0833 -0.584247ZM21.0233 8.39463L19.6303 8.94155L19.7756 9.33892L19.8003 9.38505L19.9443 9.90064L19.969 9.94676L20.0172 10.1572L21.4771 9.83454L21.4178 9.55818L21.3985 9.54396L21.3946 9.51129L21.2133 8.88444L21.1951 8.87111L21.1912 8.83844L21.0233 8.39463ZM21.7204 11.3226L20.2129 11.4353L20.2335 11.6832L20.2383 11.7146L20.2397 12.2697L20.2475 12.335L20.209 12.7443L21.7154 12.8329L21.7445 12.358L21.7397 12.3266L21.7539 12.3072L21.7383 11.6551L21.7323 11.6228L21.7284 11.5901L21.7204 11.3226ZM21.4898 14.3243L20.0213 14.0297L20.0079 14.0479L19.9981 14.0993L19.8433 14.626L19.8334 14.6774L19.6197 15.2464L21.0067 15.7733L21.2501 15.1665L21.2588 15.1142L21.2726 15.0955L21.4454 14.4657L21.4587 14.4476L21.4536 14.414L21.4911 14.3252L21.4898 14.3243Z" fill="white"/>
<path d="M16.9527 7.49288C17.3177 7.85412 17.3206 8.43877 16.9594 8.79756L14.5776 11.2037L15.9111 16.8527L15.0479 17.7311L12.6367 13.1707L10.2488 15.5831L10.4782 17.102L9.82298 17.7577L8.72987 15.8062L6.76114 14.7269L7.41009 14.059L8.94979 14.2788L11.3193 11.885L6.73449 9.50207L7.60396 8.62988L13.2663 9.90571L15.648 7.49954C15.9908 7.14084 16.6063 7.1377 16.9527 7.49288Z" fill="white"/>
</g>
<defs>
<clipPath id="clip0_710_5157">
<rect width="24" height="24" fill="white"/>
</clipPath>
</defs>
</svg>
