<?xml version="1.0" encoding="UTF-8"?>
<svg version="1.1" xmlns="http://www.w3.org/2000/svg" width="100" height="100">
<path d="M0 0 C0.71446289 -0.0087616 1.42892578 -0.01752319 2.16503906 -0.02655029 C4.51690151 -0.04848224 6.86686987 -0.03401601 9.21875 -0.01708984 C10.85872761 -0.02045982 12.49870279 -0.02531396 14.13867188 -0.03158569 C17.57185703 -0.03894853 21.00439072 -0.02827126 24.4375 -0.00488281 C28.83284357 0.02360553 33.22666065 0.00719826 37.62194824 -0.02274513 C41.00727794 -0.04083458 44.39224719 -0.03505273 47.77758789 -0.02210617 C49.39786969 -0.01877666 51.01818448 -0.02284327 52.63842773 -0.03450394 C54.90566356 -0.04724101 57.17044642 -0.02780132 59.4375 0 C60.72591797 0.00397797 62.01433594 0.00795593 63.34179688 0.01205444 C67.69943743 0.83135671 69.15094222 2.05802415 71.71875 5.64697266 C72.35366821 9.02392578 72.35366821 9.02392578 72.36572266 12.92822266 C72.37448425 13.64268555 72.38324585 14.35714844 72.39227295 15.09326172 C72.4142049 17.44512416 72.39973866 19.79509252 72.3828125 22.14697266 C72.38618248 23.78695027 72.39103661 25.42692545 72.39730835 27.06689453 C72.40467119 30.50007969 72.39399392 33.93261337 72.37060547 37.36572266 C72.34211713 41.76106623 72.35852439 46.15488331 72.38846779 50.5501709 C72.40655723 53.9355006 72.40077539 57.32046984 72.38782883 60.70581055 C72.38449932 62.32609234 72.38856592 63.94640713 72.40022659 65.56665039 C72.41296367 67.83388621 72.39352397 70.09866907 72.36572266 72.36572266 C72.35975571 74.29834961 72.35975571 74.29834961 72.35366821 76.27001953 C71.53436595 80.62766008 70.3076985 82.07916487 66.71875 84.64697266 C63.34179687 85.28189087 63.34179687 85.28189087 59.4375 85.29394531 C58.72303711 85.30270691 58.00857422 85.31146851 57.27246094 85.32049561 C54.92059849 85.34242756 52.57063013 85.32796132 50.21875 85.31103516 C48.57877239 85.31440513 46.93879721 85.31925927 45.29882812 85.32553101 C41.86564297 85.33289384 38.43310928 85.32221657 35 85.29882812 C30.60465643 85.27033979 26.21083935 85.28674705 21.81555176 85.31669044 C18.43022206 85.33477989 15.04525281 85.32899804 11.65991211 85.31605148 C10.03963031 85.31272198 8.41931552 85.31678858 6.79907227 85.32844925 C4.53183644 85.34118632 2.26705358 85.32174663 0 85.29394531 C-1.28841797 85.28996735 -2.57683594 85.28598938 -3.90429688 85.28189087 C-8.26193743 84.4625886 -9.71344222 83.23592116 -12.28125 79.64697266 C-12.91616821 76.27001953 -12.91616821 76.27001953 -12.92822266 72.36572266 C-12.93698425 71.65125977 -12.94574585 70.93679687 -12.95477295 70.20068359 C-12.9767049 67.84882115 -12.96223866 65.49885279 -12.9453125 63.14697266 C-12.94868248 61.50699504 -12.95353661 59.86701987 -12.95980835 58.22705078 C-12.96717119 54.79386562 -12.95649392 51.36133194 -12.93310547 47.92822266 C-12.90461713 43.53287909 -12.92102439 39.139062 -12.95096779 34.74377441 C-12.96905723 31.35844471 -12.96327539 27.97347547 -12.95032883 24.58813477 C-12.94699932 22.96785297 -12.95106592 21.34753818 -12.96272659 19.72729492 C-12.97546367 17.4600591 -12.95602397 15.19527624 -12.92822266 12.92822266 C-12.92424469 11.63980469 -12.92026672 10.35138672 -12.91616821 9.02392578 C-11.51600901 1.57686898 -7.00544459 0.02162918 0 0 Z M11.71875 24.64697266 C13.03995828 27.57927458 14.46513197 29.63362165 16.7578125 31.88134766 C17.33789062 32.45498047 17.91796875 33.02861328 18.515625 33.61962891 C19.42054687 34.49941406 19.42054687 34.49941406 20.34375 35.39697266 C20.95476563 35.99896484 21.56578125 36.60095703 22.1953125 37.22119141 C23.69863624 38.70102571 25.20809856 40.17461942 26.71875 41.64697266 C25.40151246 44.57760784 23.99726354 46.5941321 21.6796875 48.81103516 C21.09960938 49.37564453 20.51953125 49.94025391 19.921875 50.52197266 C19.31859375 51.09947266 18.7153125 51.67697266 18.09375 52.27197266 C16.88873011 53.42614782 15.68796513 54.58478728 14.4921875 55.74853516 C13.69433838 56.51157959 13.69433838 56.51157959 12.88037109 57.29003906 C11.50197717 58.60248753 11.50197717 58.60248753 11.71875 60.64697266 C14.65105193 59.32576437 16.70539899 57.90059068 18.953125 55.60791016 C19.52675781 55.02783203 20.10039063 54.44775391 20.69140625 53.85009766 C21.27792969 53.24681641 21.86445312 52.64353516 22.46875 52.02197266 C23.07074219 51.41095703 23.67273438 50.79994141 24.29296875 50.17041016 C25.77280305 48.66708642 27.24639676 47.1576241 28.71875 45.64697266 C31.64938519 46.9642102 33.66590944 48.36845911 35.8828125 50.68603516 C36.72972656 51.55615234 36.72972656 51.55615234 37.59375 52.44384766 C38.17125 53.04712891 38.74875 53.65041016 39.34375 54.27197266 C40.49792517 55.47699255 41.65656463 56.67775753 42.8203125 57.87353516 C43.58335693 58.67138428 43.58335693 58.67138428 44.36181641 59.48535156 C45.67426487 60.86374549 45.67426487 60.86374549 47.71875 60.64697266 C46.39754172 57.71467073 44.97236803 55.66032366 42.6796875 53.41259766 C42.09960938 52.83896484 41.51953125 52.26533203 40.921875 51.67431641 C40.31859375 51.08779297 39.7153125 50.50126953 39.09375 49.89697266 C38.48273437 49.29498047 37.87171875 48.69298828 37.2421875 48.07275391 C35.73886376 46.5929196 34.22940144 45.11932589 32.71875 43.64697266 C34.03598754 40.71633747 35.44023646 38.69981321 37.7578125 36.48291016 C38.62792969 35.63599609 38.62792969 35.63599609 39.515625 34.77197266 C40.11890625 34.19447266 40.7221875 33.61697266 41.34375 33.02197266 C42.54876989 31.86779749 43.74953487 30.70915803 44.9453125 29.54541016 C45.74316162 28.78236572 45.74316162 28.78236572 46.55712891 28.00390625 C47.93552283 26.69145779 47.93552283 26.69145779 47.71875 24.64697266 C44.78644807 25.96818094 42.73210101 27.39335463 40.484375 29.68603516 C39.91074219 30.26611328 39.33710937 30.84619141 38.74609375 31.44384766 C38.15957031 32.04712891 37.57304688 32.65041016 36.96875 33.27197266 C36.36675781 33.88298828 35.76476562 34.49400391 35.14453125 35.12353516 C33.66469695 36.62685889 32.19110324 38.13632121 30.71875 39.64697266 C27.78811481 38.32973511 25.77159056 36.9254862 23.5546875 34.60791016 C22.99007812 34.02783203 22.42546875 33.44775391 21.84375 32.85009766 C21.26625 32.24681641 20.68875 31.64353516 20.09375 31.02197266 C18.93957483 29.81695277 17.78093537 28.61618779 16.6171875 27.42041016 C16.10849121 26.88851074 15.59979492 26.35661133 15.07568359 25.80859375 C13.76323513 24.43019982 13.76323513 24.43019982 11.71875 24.64697266 Z " fill="#FFFFFF" transform="translate(20.28125,7.35302734375)"/>
</svg>
