<?xml version="1.0" encoding="UTF-8"?>
<svg version="1.1" xmlns="http://www.w3.org/2000/svg" width="64" height="64">
<path d="M0 0 C1.32 0 2.64 0 4 0 C6.73764128 6.34804808 9.46033484 12.70235114 12.17260742 19.0612793 C13.09753895 21.22486847 14.02591431 23.38698872 14.95776367 25.54760742 C16.29468009 28.64905428 17.61922307 31.75553007 18.94140625 34.86328125 C19.57255089 36.31653557 19.57255089 36.31653557 20.21644592 37.79914856 C20.59691574 38.6998558 20.97738556 39.60056305 21.36938477 40.52856445 C21.70913834 41.32132278 22.04889191 42.11408112 22.39894104 42.93086243 C23 45 23 45 22 48 C21.48203857 47.80253174 20.96407715 47.60506348 20.43041992 47.40161133 C7.54111862 42.21390946 7.54111862 42.21390946 -5.7734375 43.9375 C-6.50820313 44.288125 -7.24296875 44.63875 -8 45 C-11.58197954 46.53130964 -14.08198444 47.2238866 -18 47 C-17.38661848 41.36330442 -15.37273528 36.61444371 -13.18359375 31.4453125 C-12.80767593 30.54376434 -12.43175812 29.64221619 -12.04444885 28.71334839 C-10.84809358 25.84802897 -9.64294014 22.98650761 -8.4375 20.125 C-7.62246261 18.17732773 -6.80800298 16.22941357 -5.99414062 14.28125 C-4.00277522 9.51800558 -2.00351353 4.75814671 0 0 Z M1 6 C1 6.66 1 7.32 1 8 C1.66 8 2.32 8 3 8 C3 7.34 3 6.68 3 6 C2.34 6 1.68 6 1 6 Z M0 10 C-3.57578619 16.81738675 -6.42933318 23.84173798 -9.25 31 C-9.70890625 32.15628906 -10.1678125 33.31257813 -10.640625 34.50390625 C-11.76358474 37.33470061 -12.88328609 40.16673727 -14 43 C-10.71215729 42.37261137 -7.74637331 41.58072904 -4.625 40.375 C3.13572155 37.77107369 10.4083188 40.81722005 18 43 C15.71856297 35.84255048 13.04565131 28.92010175 10.125 22 C9.70347656 20.95199219 9.28195313 19.90398438 8.84765625 18.82421875 C8.42613281 17.83035156 8.00460938 16.83648437 7.5703125 15.8125 C7.19664551 14.91144531 6.82297852 14.01039062 6.43798828 13.08203125 C5.14065847 10.74050065 5.14065847 10.74050065 2.33935547 10.19921875 C1.56736816 10.13347656 0.79538086 10.06773438 0 10 Z " fill="#FFFFFF" transform="translate(31,16)"/>
<path d="M0 0 C0.99 0 1.98 0 3 0 C5.1875 3 5.1875 3 7 6 C7.33 4.02 7.66 2.04 8 0 C8.66 0 9.32 0 10 0 C10 4.62 10 9.24 10 14 C9.01 14 8.02 14 7 14 C4.8125 11 4.8125 11 3 8 C2.67 9.98 2.34 11.96 2 14 C1.34 14 0.68 14 0 14 C0 9.38 0 4.76 0 0 Z " fill="#FFFFFF" transform="translate(28,0)"/>
<path d="M0 0 C1.32 0 2.64 0 4 0 C4 0.66 4 1.32 4 2 C2.68 2 1.36 2 0 2 C0 1.34 0 0.68 0 0 Z " fill="#FFFFFF" transform="translate(31,49)"/>
<path d="M0 0 C1.32 0 2.64 0 4 0 C4 0.66 4 1.32 4 2 C2.68 2 1.36 2 0 2 C0 1.34 0 0.68 0 0 Z " fill="#FFFFFF" transform="translate(31,44)"/>
<path d="M0 0 C1.32 0 2.64 0 4 0 C4 0.66 4 1.32 4 2 C2.68 2 1.36 2 0 2 C0 1.34 0 0.68 0 0 Z " fill="#FFFFFF" transform="translate(31,39)"/>
<path d="M0 0 C1.32 0 2.64 0 4 0 C4 0.66 4 1.32 4 2 C2.68 2 1.36 2 0 2 C0 1.34 0 0.68 0 0 Z " fill="#FFFFFF" transform="translate(31,34)"/>
<path d="M0 0 C1.32 0 2.64 0 4 0 C4 0.66 4 1.32 4 2 C2.68 2 1.36 2 0 2 C0 1.34 0 0.68 0 0 Z " fill="#FFFFFF" transform="translate(31,29)"/>
</svg>
