<?xml version="1.0" encoding="UTF-8"?>
<svg version="1.1" xmlns="http://www.w3.org/2000/svg" width="50" height="50">
<path d="M0 0 C0.78810059 -0.00459229 1.57620117 -0.00918457 2.38818359 -0.01391602 C7.68859762 0.00109762 7.68859762 0.00109762 8.8125 1.125 C9.06041462 3.73575525 9.24214477 6.3200333 9.375 8.9375 C9.4167334 9.72761475 9.4584668 10.51772949 9.50146484 11.33178711 C9.80264174 17.61654996 9.91868856 23.89592739 9.9375 30.1875 C9.94438843 31.49908081 9.94438843 31.49908081 9.95141602 32.8371582 C9.93604678 39.00145322 9.93604678 39.00145322 8.8125 40.125 C7.2776703 40.21819449 5.73857918 40.242458 4.20092773 40.23852539 C3.21998642 40.23844986 2.2390451 40.23837433 1.2283783 40.23829651 C0.1617244 40.23313522 -0.9049295 40.22797394 -2.00390625 40.22265625 C-3.63319313 40.22053383 -3.63319313 40.22053383 -5.2953949 40.21836853 C-8.78029075 40.21275048 -12.26512342 40.20019492 -15.75 40.1875 C-18.10611887 40.18248733 -20.46223874 40.17792402 -22.81835938 40.17382812 C-28.60809464 40.16277519 -34.39779281 40.14601951 -40.1875 40.125 C-40.21214849 34.73153012 -40.23033531 29.33809275 -40.24243164 23.94458008 C-40.24747231 22.10831125 -40.25430477 20.27204646 -40.26293945 18.43579102 C-40.27501672 15.80223599 -40.28073081 13.16873384 -40.28515625 10.53515625 C-40.29031754 9.70911392 -40.29547882 8.88307159 -40.30079651 8.03199768 C-40.30099205 6.06263632 -40.24954152 4.09338386 -40.1875 2.125 C-38.44340157 0.38090157 -36.00917551 0.89180486 -33.6328125 0.80859375 C-32.46854736 0.76653809 -31.30428223 0.72448242 -30.10473633 0.68115234 C-28.85329834 0.64199707 -27.60186035 0.6028418 -26.3125 0.5625 C-25.05010498 0.5207666 -23.78770996 0.4790332 -22.48706055 0.43603516 C-14.99186007 0.20268817 -7.49894683 0.02441931 0 0 Z M-37.1875 3.125 C-37.1875 14.675 -37.1875 26.225 -37.1875 38.125 C-22.48567248 38.23310167 -7.87129865 37.83979911 6.8125 37.125 C6.84042646 34.64575068 6.85976263 32.16683822 6.875 29.6875 C6.88756836 28.68493164 6.88756836 28.68493164 6.90039062 27.66210938 C6.93765675 19.42629574 6.29970988 11.40756793 5.8125 3.125 C-8.3775 3.125 -22.5675 3.125 -37.1875 3.125 Z " fill="#FFFFFF" transform="translate(40.1875,4.875)"/>
</svg>
