<?xml version="1.0" encoding="UTF-8"?>
<svg version="1.1" xmlns="http://www.w3.org/2000/svg" width="100" height="100">
<path d="M0 0 C5.02661209 2.22273228 8.35883819 6.02932191 12.1875 9.875 C12.92419922 10.59558594 13.66089844 11.31617188 14.41992188 12.05859375 C15.47083008 13.10853516 15.47083008 13.10853516 16.54296875 14.1796875 C17.18258545 14.81632324 17.82220215 15.45295898 18.48120117 16.10888672 C20.12610019 18.15701207 20.78681393 19.38609647 21 22 C19 25 19 25 16.3125 25.625 C13 25 13 25 6 18 C5.67 27.24 5.34 36.48 5 46 C14.24 45.67 23.48 45.34 33 45 C29.535 41.535 29.535 41.535 26 38 C25.5625 34.5625 25.5625 34.5625 26 32 C27.65 31.34 29.3 30.68 31 30 C38.08470943 35.91781611 44.52848604 42.43141333 51 49 C48.69933053 54.21158641 44.69038979 57.79595142 40.75 61.8125 C39.62271484 63.01422852 39.62271484 63.01422852 38.47265625 64.24023438 C36.39291941 66.35808157 34.42826772 68.29179553 32 70 C28.453125 70.01171875 28.453125 70.01171875 26 69 C25.2890625 66.765625 25.2890625 66.765625 25 64 C26.3984375 61.796875 26.3984375 61.796875 28.375 59.75 C29.02210937 59.06421875 29.66921875 58.3784375 30.3359375 57.671875 C31.22317621 56.78047085 32.11067613 55.88932387 33 55 C19.14 54.505 19.14 54.505 5 54 C5.33 63.24 5.66 72.48 6 82 C9.465 78.535 9.465 78.535 13 75 C14.98 74.505 14.98 74.505 17 74 C19.25 75.4375 19.25 75.4375 21 77 C20.50657306 81.42723064 19.12950554 83.34964147 15.96484375 86.42578125 C15.15595703 87.22177734 14.34707031 88.01777344 13.51367188 88.83789062 C12.66353516 89.65451172 11.81339844 90.47113281 10.9375 91.3125 C10.08349609 92.14845703 9.22949219 92.98441406 8.34960938 93.84570312 C6.24178688 95.90642344 4.12520151 97.95723209 2 100 C-3.02661209 97.77726772 -6.35883819 93.97067809 -10.1875 90.125 C-10.92419922 89.40441406 -11.66089844 88.68382813 -12.41992188 87.94140625 C-13.12052734 87.24144531 -13.82113281 86.54148437 -14.54296875 85.8203125 C-15.18258545 85.18367676 -15.82220215 84.54704102 -16.48120117 83.89111328 C-18.12610019 81.84298793 -18.78681393 80.61390353 -19 78 C-17 75 -17 75 -14.3125 74.375 C-11 75 -11 75 -4 82 C-3.67 72.76 -3.34 63.52 -3 54 C-12.24 54.33 -21.48 54.66 -31 55 C-28.69 57.31 -26.38 59.62 -24 62 C-23.67 63.32 -23.34 64.64 -23 66 C-24.4375 68.25 -24.4375 68.25 -26 70 C-30.42723064 69.50657306 -32.34964147 68.12950554 -35.42578125 64.96484375 C-36.22177734 64.15595703 -37.01777344 63.34707031 -37.83789062 62.51367188 C-38.65451172 61.66353516 -39.47113281 60.81339844 -40.3125 59.9375 C-41.14845703 59.08349609 -41.98441406 58.22949219 -42.84570312 57.34960938 C-44.90642344 55.24178688 -46.95723209 53.12520151 -49 51 C-47.58460683 47.79008252 -45.88037968 45.62345155 -43.41015625 43.14453125 C-42.70826172 42.44005859 -42.00636719 41.73558594 -41.28320312 41.00976562 C-40.18395508 39.92211914 -40.18395508 39.92211914 -39.0625 38.8125 C-38.33353516 38.07580078 -37.60457031 37.33910156 -36.85351562 36.58007812 C-35.79874023 35.52916992 -35.79874023 35.52916992 -34.72265625 34.45703125 C-33.75984741 33.4976062 -33.75984741 33.4976062 -32.77758789 32.51879883 C-31 31 -31 31 -28 30 C-25.8125 30.9375 -25.8125 30.9375 -24 32 C-23.5625 34.5625 -23.5625 34.5625 -24 38 C-26.31 40.31 -28.62 42.62 -31 45 C-17.14 45.495 -17.14 45.495 -3 46 C-3.33 36.76 -3.66 27.52 -4 18 C-6.31 20.31 -8.62 22.62 -11 25 C-14.4375 25.4375 -14.4375 25.4375 -17 25 C-17.66 23.35 -18.32 21.7 -19 20 C-13.08218389 12.91529057 -6.56858667 6.47151396 0 0 Z " fill="#FFFFFF" transform="translate(49,0)"/>
</svg>
