<?xml version="1.0" encoding="UTF-8"?>
<svg version="1.1" xmlns="http://www.w3.org/2000/svg" width="80" height="80">
<path d="M0 0 C3.75390625 0.44921875 3.75390625 0.44921875 4.75390625 1.44921875 C4.84375 4.25 4.84375 4.25 4.69140625 7.76171875 C4.65917969 8.91285156 4.62695312 10.06398438 4.59375 11.25 C3.45697805 15.58030803 1.45349887 16.04453849 -2.24609375 18.44921875 C-4.10875425 20.19943826 -5.92355188 22.00156738 -7.6953125 23.84375 C-8.71911025 24.89286197 -9.74320863 25.94168065 -10.76757812 26.99023438 C-12.34658546 28.61850186 -13.92216252 30.24979682 -15.49194336 31.88696289 C-31.3050331 48.33307466 -31.3050331 48.33307466 -39.47607422 49.86816406 C-41.43359375 49.88671875 -41.43359375 49.88671875 -44.24609375 49.44921875 C-44.74392788 41.24003561 -41.38964705 36.55498427 -36.24609375 30.44921875 C-31.45252023 25.24469525 -26.37657515 20.3191679 -21.24609375 15.44921875 C-23.88609375 14.78921875 -26.52609375 14.12921875 -29.24609375 13.44921875 C-29.24609375 12.45921875 -29.24609375 11.46921875 -29.24609375 10.44921875 C-28.25609375 10.65546875 -27.26609375 10.86171875 -26.24609375 11.07421875 C-24.22499843 11.22339382 -24.22499843 11.22339382 -22.24609375 10.44921875 C-20.55415276 8.17443433 -20.55415276 8.17443433 -18.93359375 5.44921875 C-13.99647757 -1.52372024 -7.79215542 -0.49012404 0 0 Z M-12.24609375 3.44921875 C-13.96045555 5.40848938 -15.63014543 7.40802087 -17.24609375 9.44921875 C-16.91609375 10.10921875 -16.58609375 10.76921875 -16.24609375 11.44921875 C-15.24013078 10.49714665 -14.24147812 9.53734529 -13.24609375 8.57421875 C-12.41078125 7.77371094 -12.41078125 7.77371094 -11.55859375 6.95703125 C-10.02723853 5.53096887 -10.02723853 5.53096887 -10.24609375 3.44921875 C-10.90609375 3.44921875 -11.56609375 3.44921875 -12.24609375 3.44921875 Z M-5.24609375 4.44921875 C-5.90609375 4.44921875 -6.56609375 4.44921875 -7.24609375 4.44921875 C-6.75109375 6.92421875 -6.75109375 6.92421875 -6.24609375 9.44921875 C-7.23609375 9.11921875 -8.22609375 8.78921875 -9.24609375 8.44921875 C-16.50609375 15.70921875 -23.76609375 22.96921875 -31.24609375 30.44921875 C-30.91609375 31.43921875 -30.58609375 32.42921875 -30.24609375 33.44921875 C-31.23609375 33.11921875 -32.22609375 32.78921875 -33.24609375 32.44921875 C-35.88609375 36.07921875 -38.52609375 39.70921875 -41.24609375 43.44921875 C-40.25609375 44.43921875 -39.26609375 45.42921875 -38.24609375 46.44921875 C-34.61609375 43.80921875 -30.98609375 41.16921875 -27.24609375 38.44921875 C-27.74109375 36.96421875 -27.74109375 36.96421875 -28.24609375 35.44921875 C-27.25609375 35.77921875 -26.26609375 36.10921875 -25.24609375 36.44921875 C-17.98609375 29.18921875 -10.72609375 21.92921875 -3.24609375 14.44921875 C-3.74109375 12.96421875 -3.74109375 12.96421875 -4.24609375 11.44921875 C-1.77109375 11.94421875 -1.77109375 11.94421875 0.75390625 12.44921875 C0.73328125 11.70671875 0.71265625 10.96421875 0.69140625 10.19921875 C0.74719313 7.74459596 1.06089665 5.78812614 1.75390625 3.44921875 C-0.8866387 3.44921875 -2.73152037 3.80029659 -5.24609375 4.44921875 Z " fill="#FFFFFF" transform="translate(67.24609375,23.55078125)"/>
<path d="M0 0 C0 0.99 0 1.98 0 3 C-2.07880543 4.48399395 -4.11542355 5.7771394 -6.3125 7.0625 C-15.19702219 12.52275567 -25.02925714 18.97860134 -29 29 C-29.83333333 32.5 -29.83333333 32.5 -29 36 C-27.56285239 37.89819786 -25.98518723 39.5781903 -24.3515625 41.30859375 C-23 43 -23 43 -22.375 46.125 C-23.13875987 49.63829539 -24.73200738 51.25091803 -27 54 C-27.79690838 57.18762109 -27.79690838 57.18762109 -28 60 C-25.03 60.99 -22.06 61.98 -19 63 C-19 63.66 -19 64.32 -19 65 C-22.92556076 65.30788712 -25.3957736 65.30854114 -28.9375 63.5 C-31.31646762 60.61640288 -31.65185208 58.67083749 -31.4453125 54.953125 C-30.78020809 52.03600038 -28.89247536 50.25876091 -27 48 C-26.76999802 45.47570505 -26.76999802 45.47570505 -28 43 C-28.845625 42.113125 -29.69125 41.22625 -30.5625 40.3125 C-33.52057135 36.93926074 -33.79212436 33.97952746 -33.53515625 29.578125 C-31.26915609 18.66162788 -20.18458411 10.99154566 -11.44921875 5.16796875 C-10.82660156 4.76191406 -10.20398438 4.35585937 -9.5625 3.9375 C-8.95921875 3.54304687 -8.3559375 3.14859375 -7.734375 2.7421875 C-4.93330875 0.97808483 -3.37415499 0 0 0 Z " fill="#FFFFFF" transform="translate(41,8)"/>
<path d="M0 0 C0.66 0 1.32 0 2 0 C2 0.66 2 1.32 2 2 C1.34 2 0.68 2 0 2 C0 1.34 0 0.68 0 0 Z " fill="#FFFFFF" transform="translate(37,57)"/>
<path d="M0 0 C0.66 0 1.32 0 2 0 C2 0.66 2 1.32 2 2 C1.34 2 0.68 2 0 2 C0 1.34 0 0.68 0 0 Z " fill="#FFFFFF" transform="translate(61,33)"/>
<path d="M0 0 C0.66 0 1.32 0 2 0 C2 0.66 2 1.32 2 2 C1.34 2 0.68 2 0 2 C0 1.34 0 0.68 0 0 Z " fill="#FFFFFF" transform="translate(65,29)"/>
</svg>
