<?xml version="1.0" encoding="UTF-8"?>
<svg version="1.1" xmlns="http://www.w3.org/2000/svg" width="50" height="50">
<path d="M0 0 C0.99 0.33 1.98 0.66 3 1 C2.69078116 2.45903258 2.37751201 3.91720722 2.0625 5.375 C1.88847656 6.18710938 1.71445312 6.99921875 1.53515625 7.8359375 C1 10 1 10 0 12 C-2.64 12 -5.28 12 -8 12 C-8 12.66 -8 13.32 -8 14 C-6.88625 13.87625 -6.88625 13.87625 -5.75 13.75 C-3 14 -3 14 -0.84375 15.5625 C1.67902784 18.89769782 1.40295542 21.1202036 1.25 25.25 C1.21390625 26.51328125 1.1778125 27.7765625 1.140625 29.078125 C1.09421875 30.04234375 1.0478125 31.0065625 1 32 C0.34 32 -0.32 32 -1 32 C-1 31.34 -1 30.68 -1 30 C-2.32 30 -3.64 30 -5 30 C-5 29.34 -5 28.68 -5 28 C-3.68 28 -2.36 28 -1 28 C-1.66 24.7 -2.32 21.4 -3 18 C-10.26 18 -17.52 18 -25 18 C-25.66 21.3 -26.32 24.6 -27 28 C-25.68 28 -24.36 28 -23 28 C-23 28.66 -23 29.32 -23 30 C-24.32 30 -25.64 30 -27 30 C-27 30.66 -27 31.32 -27 32 C-27.66 32 -28.32 32 -29 32 C-29.10823773 29.75106046 -29.18569645 27.50062425 -29.25 25.25 C-29.29640625 23.99703125 -29.3428125 22.7440625 -29.390625 21.453125 C-29 18 -29 18 -27.15625 15.5625 C-24.55966769 13.68091861 -23.13764313 13.65137299 -20 14 C-20 13.34 -20 12.68 -20 12 C-22.64 12 -25.28 12 -28 12 C-29.25664978 9.09399739 -30 7.20395416 -30 4 C-32.97 4 -35.94 4 -39 4 C-39 3.34 -39 2.68 -39 2 C-32.09811029 1.16145265 -25.88577812 0.98406552 -19 2 C-19 2.66 -19 3.32 -19 4 C-21.64 4 -24.28 4 -27 4 C-26.67 5.65 -26.34 7.3 -26 9 C-18.08 9 -10.16 9 -2 9 C-1.67 7.35 -1.34 5.7 -1 4 C-3.64 4 -6.28 4 -9 4 C-9 3.34 -9 2.68 -9 2 C-6.03 2 -3.06 2 0 2 C0 1.34 0 0.68 0 0 Z " fill="#FFFFFF" transform="translate(39,8)"/>
<path d="M0 0 C3.3 0 6.6 0 10 0 C10 0.66 10 1.32 10 2 C10.99 2 11.98 2 13 2 C13 5.63 13 9.26 13 13 C7.72 13 2.44 13 -3 13 C-3 9.37 -3 5.74 -3 2 C-2.01 2 -1.02 2 0 2 C0 1.34 0 0.68 0 0 Z M3 5 C3 6.32 3 7.64 3 9 C4.32 9 5.64 9 7 9 C7 7.68 7 6.36 7 5 C5.68 5 4.36 5 3 5 Z " fill="#FFFFFF" transform="translate(20,30)"/>
<path d="M0 0 C2.64 0 5.28 0 8 0 C8 0.66 8 1.32 8 2 C5.36 2 2.72 2 0 2 C0 1.34 0 0.68 0 0 Z " fill="#FFFFFF" transform="translate(42,10)"/>
</svg>
