<?xml version="1.0" encoding="UTF-8"?>
<svg version="1.1" xmlns="http://www.w3.org/2000/svg" width="64" height="64">
<path d="M0 0 C2.88768783 0.33522994 4.54965833 0.56120894 6.66577148 2.62304688 C7.14602783 3.31462891 7.62628418 4.00621094 8.12109375 4.71875 C8.66443359 5.48703125 9.20777344 6.2553125 9.76757812 7.046875 C10.59418945 8.26117188 10.59418945 8.26117188 11.4375 9.5 C12.25831055 10.66789063 12.25831055 10.66789063 13.09570312 11.859375 C14.19639477 13.43290814 15.28676522 15.01371137 16.36669922 16.6015625 C17.4772762 18.2324008 18.60462433 19.85191686 19.74658203 21.4609375 C20.57005127 22.64042969 20.57005127 22.64042969 21.41015625 23.84375 C21.90781494 24.54693359 22.40547363 25.25011719 22.91821289 25.97460938 C24 28 24 28 24 32 C21.73828125 31.91015625 21.73828125 31.91015625 19 31 C18.0077175 29.45940469 17.02585004 27.9069321 16.17407227 26.28442383 C14.18924694 22.568709 12.12570924 18.98100852 8.18652344 17.16308594 C3.40074431 15.91637037 -1.46690343 15.89757499 -6 18 C-9.51044582 21.07229523 -11.7231266 24.91005125 -13.984375 28.9375 C-14.64953125 29.948125 -15.3146875 30.95875 -16 32 C-17.32 32 -18.64 32 -20 32 C-19.70967448 25.73297334 -16.45601914 21.93749827 -12.8125 17.125 C-12.24724609 16.36058594 -11.68199219 15.59617187 -11.09960938 14.80859375 C-9.41116321 12.53025517 -7.70758846 10.26401576 -6 8 C-4.85775738 6.47679907 -3.71581096 4.95337596 -2.57421875 3.4296875 C-1.71624993 2.28638021 -0.85821859 1.14311982 0 0 Z M1 7 C-0.63676257 8.9600281 -0.63676257 8.9600281 -2 11 C-1.67 11.66 -1.34 12.32 -1 13 C1.31 13 3.62 13 6 13 C5.5359375 12.071875 5.5359375 12.071875 5.0625 11.125 C4.375 9.75 3.6875 8.375 3 7 C2.34 7 1.68 7 1 7 Z " fill="#FFFFFF" transform="translate(24,4)"/>
<path d="M0 0 C17.82 0 35.64 0 54 0 C54.495 2.475 54.495 2.475 55 5 C49.41829123 5.94689702 44.03032338 6.14611432 38.375 6.1328125 C37.46927246 6.13376923 36.56354492 6.13472595 35.63037109 6.13571167 C33.72428314 6.13638913 31.81819283 6.13456525 29.91210938 6.13037109 C27.00906143 6.12501671 24.10616818 6.13033088 21.203125 6.13671875 C19.34374966 6.13605789 17.48437442 6.13477657 15.625 6.1328125 C14.33408447 6.13584885 14.33408447 6.13584885 13.01708984 6.13894653 C8.23942497 6.12053016 3.71195492 5.7993495 -1 5 C-0.67 3.35 -0.34 1.7 0 0 Z " fill="#FFFFFF" transform="translate(5,54)"/>
<path d="M0 0 C17.82 0 35.64 0 54 0 C54.495 2.475 54.495 2.475 55 5 C49.41829123 5.94689702 44.03032338 6.14611432 38.375 6.1328125 C37.46927246 6.13376923 36.56354492 6.13472595 35.63037109 6.13571167 C33.72428314 6.13638913 31.81819283 6.13456525 29.91210938 6.13037109 C27.00906143 6.12501671 24.10616818 6.13033088 21.203125 6.13671875 C19.34374966 6.13605789 17.48437442 6.13477657 15.625 6.1328125 C14.33408447 6.13584885 14.33408447 6.13584885 13.01708984 6.13894653 C8.23942497 6.12053016 3.71195492 5.7993495 -1 5 C-0.67 3.35 -0.34 1.7 0 0 Z " fill="#FFFFFF" transform="translate(5,46)"/>
<path d="M0 0 C17.82 0 35.64 0 54 0 C54.495 2.475 54.495 2.475 55 5 C49.41829123 5.94689702 44.03032338 6.14611432 38.375 6.1328125 C37.46927246 6.13376923 36.56354492 6.13472595 35.63037109 6.13571167 C33.72428314 6.13638913 31.81819283 6.13456525 29.91210938 6.13037109 C27.00906143 6.12501671 24.10616818 6.13033088 21.203125 6.13671875 C19.34374966 6.13605789 17.48437442 6.13477657 15.625 6.1328125 C14.33408447 6.13584885 14.33408447 6.13584885 13.01708984 6.13894653 C8.23942497 6.12053016 3.71195492 5.7993495 -1 5 C-0.67 3.35 -0.34 1.7 0 0 Z " fill="#FFFFFF" transform="translate(5,38)"/>
<path d="M0 0 C2.67020438 0.93457153 3.8781177 1.57021989 5.5 3.875 C5.5 5.195 5.5 6.515 5.5 7.875 C4.18 7.875 2.86 7.875 1.5 7.875 C1.5 13.155 1.5 18.435 1.5 23.875 C2.82 23.875 4.14 23.875 5.5 23.875 C5.13803085 26.55357172 4.76012724 28.48480914 3.25 30.75 C1.5 31.875 1.5 31.875 -1 31.75 C-3.67020438 30.81542847 -4.8781177 30.17978011 -6.5 27.875 C-6.5 26.555 -6.5 25.235 -6.5 23.875 C-5.18 23.875 -3.86 23.875 -2.5 23.875 C-2.5 18.595 -2.5 13.315 -2.5 7.875 C-3.82 7.875 -5.14 7.875 -6.5 7.875 C-6.13803085 5.19642828 -5.76012724 3.26519086 -4.25 1 C-2.5 -0.125 -2.5 -0.125 0 0 Z " fill="#FFFFFF" transform="translate(54.5,4.125)"/>
</svg>
