<?xml version="1.0" encoding="UTF-8"?>
<svg version="1.1" xmlns="http://www.w3.org/2000/svg" width="80" height="80">
<path d="M0 0 C0.33 10.89 0.66 21.78 1 33 C3.64 33 6.28 33 9 33 C9.99 33.66 10.98 34.32 12 35 C12 35.66 12 36.32 12 37 C8.04 37 4.08 37 0 37 C0.33 37.66 0.66 38.32 1 39 C2.98567708 38.93489583 4.97135417 38.86979167 6.95703125 38.8046875 C9 39 9 39 12 41 C12 41.66 12 42.32 12 43 C-8.46 43 -28.92 43 -50 43 C-49.67 42.01 -49.34 41.02 -49 40 C-45.78548731 38.39274365 -42.56387464 38.94251815 -39 39 C-38.67 38.34 -38.34 37.68 -38 37 C-41.96 37 -45.92 37 -50 37 C-49.67 36.01 -49.34 35.02 -49 34 C-47 33 -47 33 -39 33 C-38.67 22.11 -38.34 11.22 -38 0 C-35.15375 -1.52625 -32.3075 -3.0525 -29.375 -4.625 C-28.48989746 -5.11307129 -27.60479492 -5.60114258 -26.69287109 -6.10400391 C-25.97695801 -6.47444824 -25.26104492 -6.84489258 -24.5234375 -7.2265625 C-23.80075684 -7.61408691 -23.07807617 -8.00161133 -22.33349609 -8.40087891 C-15.65537581 -10.11547476 -4.243135 -2.1215675 0 0 Z M-25.125 -2.5 C-26.03507812 -2.0359375 -26.94515625 -1.571875 -27.8828125 -1.09375 C-28.93082031 -0.55234375 -28.93082031 -0.55234375 -30 0 C-29.34 1.32 -28.68 2.64 -28 4 C-28.99 4 -29.98 4 -31 4 C-31.33 3.01 -31.66 2.02 -32 1 C-32.66 1.66 -33.32 2.32 -34 3 C-33.34 3 -32.68 3 -32 3 C-32 3.99 -32 4.98 -32 6 C-33.32 5.01 -34.64 4.02 -36 3 C-36 15.21 -36 27.42 -36 40 C-24.78 40 -13.56 40 -2 40 C-2 27.79 -2 15.58 -2 3 C-2.33 3.99 -2.66 4.98 -3 6 C-3.66 5.34 -4.32 4.68 -5 4 C-4.67 3.34 -4.34 2.68 -4 2 C-6.28929053 0.82845707 -8.58118362 -0.33738074 -10.875 -1.5 C-11.52597656 -1.83386719 -12.17695312 -2.16773438 -12.84765625 -2.51171875 C-18.34498663 -5.28872069 -19.72693125 -5.26824039 -25.125 -2.5 Z " fill="#FFFFFF" transform="translate(59,15)"/>
<path d="M0 0 C1.11132797 -0.00637985 2.22265594 -0.0127597 3.36766052 -0.01933289 C4.57285843 -0.02044571 5.77805634 -0.02155853 7.01977539 -0.02270508 C8.25280899 -0.02603348 9.48584259 -0.02936188 10.75624084 -0.03279114 C13.36808905 -0.0378616 15.97994375 -0.04019943 18.59179688 -0.04003906 C21.27383135 -0.03995762 23.95569571 -0.04692355 26.63769531 -0.06054688 C30.49427553 -0.07880877 34.35065634 -0.08377299 38.20727539 -0.08520508 C39.41044907 -0.09239059 40.61362274 -0.09957611 41.85325623 -0.10697937 C42.96773636 -0.10390274 44.08221649 -0.10082611 45.23046875 -0.09765625 C46.21260849 -0.09908127 47.19474823 -0.10050629 48.20664978 -0.10197449 C50.67993164 0.14526367 50.67993164 0.14526367 53.67993164 2.14526367 C53.67993164 2.80526367 53.67993164 3.46526367 53.67993164 4.14526367 C33.21993164 4.14526367 12.75993164 4.14526367 -8.32006836 4.14526367 C-7.99006836 3.15526367 -7.66006836 2.16526367 -7.32006836 1.14526367 C-4.74374927 -0.14289587 -2.88473314 0.01120506 0 0 Z " fill="#FFFFFF" transform="translate(17.320068359375,65.854736328125)"/>
<path d="M0 0 C1.11132797 -0.00637985 2.22265594 -0.0127597 3.36766052 -0.01933289 C4.57285843 -0.02044571 5.77805634 -0.02155853 7.01977539 -0.02270508 C8.25280899 -0.02603348 9.48584259 -0.02936188 10.75624084 -0.03279114 C13.36808905 -0.0378616 15.97994375 -0.04019943 18.59179688 -0.04003906 C21.27383135 -0.03995762 23.95569571 -0.04692355 26.63769531 -0.06054688 C30.49427553 -0.07880877 34.35065634 -0.08377299 38.20727539 -0.08520508 C39.41044907 -0.09239059 40.61362274 -0.09957611 41.85325623 -0.10697937 C42.96773636 -0.10390274 44.08221649 -0.10082611 45.23046875 -0.09765625 C46.21260849 -0.09908127 47.19474823 -0.10050629 48.20664978 -0.10197449 C50.67993164 0.14526367 50.67993164 0.14526367 53.67993164 2.14526367 C53.67993164 2.80526367 53.67993164 3.46526367 53.67993164 4.14526367 C33.21993164 4.14526367 12.75993164 4.14526367 -8.32006836 4.14526367 C-7.99006836 3.15526367 -7.66006836 2.16526367 -7.32006836 1.14526367 C-4.74374927 -0.14289587 -2.88473314 0.01120506 0 0 Z " fill="#FFFFFF" transform="translate(17.320068359375,59.854736328125)"/>
<path d="M0 0 C1.65 0 3.3 0 5 0 C5 1.98 5 3.96 5 6 C3.35 6 1.7 6 0 6 C0 4.02 0 2.04 0 0 Z " fill="#FFFFFF" transform="translate(43,43)"/>
<path d="M0 0 C1.65 0 3.3 0 5 0 C5 1.98 5 3.96 5 6 C3.35 6 1.7 6 0 6 C0 4.02 0 2.04 0 0 Z " fill="#FFFFFF" transform="translate(32,43)"/>
<path d="M0 0 C1.65 0 3.3 0 5 0 C5 1.98 5 3.96 5 6 C3.35 6 1.7 6 0 6 C0 4.02 0 2.04 0 0 Z " fill="#FFFFFF" transform="translate(43,33)"/>
<path d="M0 0 C1.65 0 3.3 0 5 0 C5 1.98 5 3.96 5 6 C3.35 6 1.7 6 0 6 C0 4.02 0 2.04 0 0 Z " fill="#FFFFFF" transform="translate(32,33)"/>
<path d="M0 0 C1.65 0 3.3 0 5 0 C5 1.98 5 3.96 5 6 C3.35 6 1.7 6 0 6 C0 4.02 0 2.04 0 0 Z " fill="#FFFFFF" transform="translate(43,23)"/>
<path d="M0 0 C1.65 0 3.3 0 5 0 C5 1.98 5 3.96 5 6 C3.35 6 1.7 6 0 6 C0 4.02 0 2.04 0 0 Z " fill="#FFFFFF" transform="translate(32,23)"/>
<path d="M0 0 C0.99 0 1.98 0 3 0 C3 0.99 3 1.98 3 3 C2.01 3 1.02 3 0 3 C0 2.01 0 1.02 0 0 Z " fill="#FFFFFF" transform="translate(35,13)"/>
<path d="M0 0 C0.99 0 1.98 0 3 0 C3 0.99 3 1.98 3 3 C2.01 2.67 1.02 2.34 0 2 C0 1.34 0 0.68 0 0 Z " fill="#FFFFFF" transform="translate(46,15)"/>
<path d="M0 0 C0.99 0 1.98 0 3 0 C2.67 0.99 2.34 1.98 2 3 C1.34 3 0.68 3 0 3 C0 2.01 0 1.02 0 0 Z " fill="#FFFFFF" transform="translate(39,12)"/>
<path d="M0 0 C0.99 0 1.98 0 3 0 C3 0.66 3 1.32 3 2 C2.01 2 1.02 2 0 2 C0 1.34 0 0.68 0 0 Z " fill="#FFFFFF" transform="translate(50,17)"/>
<path d="M0 0 C0.66 0 1.32 0 2 0 C2 0.99 2 1.98 2 3 C1.34 3 0.68 3 0 3 C0 2.01 0 1.02 0 0 Z " fill="#FFFFFF" transform="translate(32,15)"/>
<path d="M0 0 C0.66 0 1.32 0 2 0 C2 0.99 2 1.98 2 3 C1.34 3 0.68 3 0 3 C0 2.01 0 1.02 0 0 Z " fill="#FFFFFF" transform="translate(43,13)"/>
</svg>
