<?xml version="1.0" encoding="UTF-8"?>
<svg version="1.1" xmlns="http://www.w3.org/2000/svg" width="90" height="90">
<path d="M0 0 C1.24523438 0.01804687 2.49046875 0.03609375 3.7734375 0.0546875 C5.18496094 0.08949219 5.18496094 0.08949219 6.625 0.125 C6.295 2.765 5.965 5.405 5.625 8.125 C2.985 8.125 0.345 8.125 -2.375 8.125 C-4.12349671 12.4289919 -5.7520361 16.77250591 -7.375 21.125 C-6.28960937 21.04378906 -5.20421875 20.96257813 -4.0859375 20.87890625 C7.29981953 20.27958609 7.29981953 20.27958609 10.84765625 22.54296875 C12.3125 24.375 12.3125 24.375 13.38671875 26.203125 C14.59939909 28.35541973 14.59939909 28.35541973 17.25 29.9375 C19.625 32.125 19.625 32.125 20.11328125 35.359375 C20.02626953 37.09960938 20.02626953 37.09960938 19.9375 38.875 C19.89238281 40.04546875 19.84726562 41.2159375 19.80078125 42.421875 C19.71376953 43.75992188 19.71376953 43.75992188 19.625 45.125 C22.925 45.125 26.225 45.125 29.625 45.125 C29.955 43.805 30.285 42.485 30.625 41.125 C32.25435241 39.74631719 33.92249607 38.41225907 35.625 37.125 C36.285 36.135 36.945 35.145 37.625 34.125 C38.35961747 44.85857744 36.43323929 52.1967923 29.375 60.4375 C22.97163802 67.13526943 15.95616884 71.95948023 6.453125 72.4609375 C-6.86120122 72.72843862 -15.25567192 70.98015432 -25.17578125 61.49609375 C-33.52734872 52.49182829 -34.96392685 43.41992046 -34.67578125 31.546875 C-34.13644276 20.99093325 -28.98720184 14.18541126 -21.375 7.125 C-14.73458417 1.97897902 -8.46311992 -0.15968151 0 0 Z M-17.875 13.875 C-18.4834375 14.38546875 -19.091875 14.8959375 -19.71875 15.421875 C-21.45735152 17.20968222 -22.38589857 18.85006671 -23.375 21.125 C-20.735 21.125 -18.095 21.125 -15.375 21.125 C-14.385 17.825 -13.395 14.525 -12.375 11.125 C-15.0749944 11.125 -15.84466032 12.13716689 -17.875 13.875 Z M-26.375 27.125 C-27.86119895 30.09739791 -27.50677009 32.82119578 -27.5 36.125 C-27.50257812 37.383125 -27.50515625 38.64125 -27.5078125 39.9375 C-27.59727358 43.02177818 -27.59727358 43.02177818 -26.375 45.125 C-23.075 45.125 -19.775 45.125 -16.375 45.125 C-16.375 39.185 -16.375 33.245 -16.375 27.125 C-19.675 27.125 -22.975 27.125 -26.375 27.125 Z M-9.375 27.125 C-9.375 33.065 -9.375 39.005 -9.375 45.125 C-2.115 45.125 5.145 45.125 12.625 45.125 C12.625 39.185 12.625 33.245 12.625 27.125 C5.365 27.125 -1.895 27.125 -9.375 27.125 Z M-23.375 51.125 C-20.82101719 55.28704606 -18.42445647 58.35431926 -14.375 61.125 C-13.715 61.125 -13.055 61.125 -12.375 61.125 C-13.365 57.825 -14.355 54.525 -15.375 51.125 C-18.015 51.125 -20.655 51.125 -23.375 51.125 Z M-7.375 51.125 C-6.37342906 57.13442561 -5.80568276 59.39622106 -2.375 64.125 C0.49747408 65.70123538 0.49747408 65.70123538 3.625 65.125 C6.64179564 62.1767679 9.15735916 59.12765683 10.625 55.125 C10.625 53.805 10.625 52.485 10.625 51.125 C4.685 51.125 -1.255 51.125 -7.375 51.125 Z M18.625 51.125 C17.635 54.425 16.645 57.725 15.625 61.125 C20.84327533 59.74369182 23.55161337 56.33902497 26.625 52.125 C26.625 51.795 26.625 51.465 26.625 51.125 C23.985 51.125 21.345 51.125 18.625 51.125 Z " fill="#FFFFFF" transform="translate(43.375,8.875)"/>
<path d="M0 0 C4.8404001 2.60960701 8.06650639 6.09014417 9.796875 11.28125 C10.33392663 17.30327154 10.81284359 23.34611948 7.27734375 28.56640625 C4.65613272 31.60258472 1.76988592 34.35592102 -1.1796875 37.0703125 C-3.3033649 39.39077854 -4.23445763 41.31275321 -5.203125 44.28125 C-7.183125 44.28125 -9.163125 44.28125 -11.203125 44.28125 C-11.5125 43.476875 -11.821875 42.6725 -12.140625 41.84375 C-13.76145592 38.53161725 -16.0574453 36.32368366 -18.703125 33.78125 C-24.09424445 28.49532312 -26.31839839 24.982416 -26.640625 17.34375 C-26.48802644 11.74615737 -25.6157998 8.70850379 -22.203125 4.28125 C-16.11678464 -1.35974838 -7.95715926 -2.59595267 0 0 Z M-13.203125 14.28125 C-13.53645833 17.28125 -13.53645833 17.28125 -13.203125 20.28125 C-11.31812229 22.59688087 -11.31812229 22.59688087 -8.203125 22.53125 C-5.08812771 22.59688087 -5.08812771 22.59688087 -3.203125 20.28125 C-2.86979167 17.28125 -2.86979167 17.28125 -3.203125 14.28125 C-5.08812771 11.96561913 -5.08812771 11.96561913 -8.203125 12.03125 C-11.31812229 11.96561913 -11.31812229 11.96561913 -13.203125 14.28125 Z " fill="#FFFFFF" transform="translate(80.203125,0.71875)"/>
</svg>
