<?xml version="1.0" encoding="UTF-8"?>
<svg version="1.1" xmlns="http://www.w3.org/2000/svg" width="50" height="50">
<path d="M0 0 C0 0.99 0 1.98 0 3 C-0.99 3.495 -0.99 3.495 -2 4 C-1.51466797 5.25296875 -1.51466797 5.25296875 -1.01953125 6.53125 C0.09963319 10.3389819 0.30041641 13.536584 0.3125 17.5 C0.32925781 18.7684375 0.34601562 20.036875 0.36328125 21.34375 C-0.02200829 25.22150275 -1.04677078 27.66044186 -3 31 C-1.68 32.32 -0.36 33.64 1 35 C-1.38463885 35.84982162 -2.58466235 36.15423342 -4.99536133 35.2590332 C-5.6839624 34.86031006 -6.37256348 34.46158691 -7.08203125 34.05078125 C-7.84966797 33.61443359 -8.61730469 33.17808594 -9.40820312 32.72851562 C-10.59833008 32.02758789 -10.59833008 32.02758789 -11.8125 31.3125 C-12.98522461 30.64057617 -12.98522461 30.64057617 -14.18164062 29.95507812 C-16.46061197 28.64709708 -18.73028559 27.32395811 -21 26 C-23.33076613 24.66211571 -25.66529259 23.33100142 -28 22 C-28 18 -28 18 -26.45874023 16.43188477 C-25.74919189 15.94002686 -25.03964355 15.44816895 -24.30859375 14.94140625 C-23.52806641 14.39033203 -22.74753906 13.83925781 -21.94335938 13.27148438 C-21.11642578 12.70751953 -20.28949219 12.14355469 -19.4375 11.5625 C-18.63763672 11.00240234 -17.83777344 10.44230469 -17.01367188 9.86523438 C-15.4318982 8.75863842 -13.84519793 7.65904795 -12.25341797 6.56689453 C-10.16692509 5.11606991 -8.13346142 3.61040436 -6.09765625 2.08984375 C-3 0 -3 0 0 0 Z M-10.9140625 9.625 C-11.67460937 10.16640625 -12.43515625 10.7078125 -13.21875 11.265625 C-14.0128125 11.83796875 -14.806875 12.4103125 -15.625 13 C-16.42679688 13.57234375 -17.22859375 14.1446875 -18.0546875 14.734375 C-20.03949128 16.15209199 -22.02106651 17.57410605 -24 19 C-21.02856642 22.16034591 -17.57517395 24.10048025 -13.8125 26.1875 C-12.83120117 26.73954102 -12.83120117 26.73954102 -11.83007812 27.30273438 C-10.22253039 28.2062466 -8.61159349 29.1037241 -7 30 C-6.66085995 26.99882243 -6.66085995 26.99882243 -8.5 25.375 C-10.79621981 21.73931863 -10.83575257 18.17876286 -10 14 C-7.5 11.0625 -7.5 11.0625 -5 9 C-5 8.34 -5 7.68 -5 7 C-7.70438399 7 -8.72402582 8.0560185 -10.9140625 9.625 Z M-4 11 C-6.14579161 12.55901182 -6.14579161 12.55901182 -8 15 C-8.46337203 19.40203429 -8.48038907 21.2794164 -6 25 C-5.01 24.67 -4.02 24.34 -3 24 C-3.66 23.01 -4.32 22.02 -5 21 C-5.07905064 18.66800612 -5.08798769 16.33167378 -5 14 C-4.34 14 -3.68 14 -3 14 C-3.33 13.01 -3.66 12.02 -4 11 Z " fill="#FFFFFF" transform="translate(28,8)"/>
<path d="M0 0 C4.24822374 0.47202486 6.19989709 2.96655518 9 6 C7.55873214 9.36295835 5.79407345 11.62927102 3 14 C2.01 14 1.02 14 0 14 C0.875 10.125 0.875 10.125 2 9 C-1.63 8.67 -5.26 8.34 -9 8 C-9 7.34 -9 6.68 -9 6 C-3.555 5.505 -3.555 5.505 2 5 C1.34 4.34 0.68 3.68 0 3 C0 2.01 0 1.02 0 0 Z " fill="#FFFFFF" transform="translate(41,19)"/>
</svg>
