<svg width="21" height="21" viewBox="0 0 21 21" fill="none" xmlns="http://www.w3.org/2000/svg">
<path d="M8.99707 9.8562L16.1775 2.67573L18.3869 4.88511L11.2064 12.0656L8.99707 9.8562Z" fill="#D1D2D2"/>
<path d="M7.75042 14.1038L10.2691 12.7845L8.27878 10.7942L6.95948 13.3128C6.84058 13.5399 6.883 13.8178 7.06421 13.999C7.24542 14.1802 7.52339 14.2227 7.75042 14.1038Z" fill="#D1D2D2"/>
<path d="M20.0461 3.22642C20.6563 2.61622 20.6563 1.62688 20.0461 1.01673C19.4359 0.406533 18.4466 0.406533 17.8364 1.01673L17.0078 1.84536L19.2175 4.05509L20.0461 3.22642Z" fill="#D1D2D2"/>
<path d="M3.82422 15.7935C3.50063 15.7935 3.23828 15.5311 3.23828 15.2075C3.23828 14.8839 3.50063 14.6216 3.82422 14.6216H5.58203V13.2544H3.43359C3.11 13.2544 2.84766 12.9921 2.84766 12.6685C2.84766 12.3449 3.11 12.0825 3.43359 12.0825H5.58203V10.7153H3.82422C3.50063 10.7153 3.23828 10.453 3.23828 10.1294C3.23828 9.8058 3.50063 9.54346 3.82422 9.54346H5.58203V8.17627H3.43359C3.11 8.17627 2.84766 7.91393 2.84766 7.59033C2.84766 7.26674 3.11 7.0044 3.43359 7.0044H5.58203V5.63721H3.82422C3.50063 5.63721 3.23828 5.37486 3.23828 5.05127C3.23828 4.72768 3.50063 4.46533 3.82422 4.46533H5.58203V3.09814H3.43359C3.11 3.09814 2.84766 2.8358 2.84766 2.51221C2.84766 2.18861 3.11 1.92627 3.43359 1.92627H5.58203V1.14502C5.58203 0.821426 5.31969 0.559082 4.99609 0.559082H1.08984C0.76625 0.559082 0.503906 0.821426 0.503906 1.14502V19.7304L4.4409 15.7935H3.82422Z" fill="#D1D2D2"/>
<path d="M19.9184 15.4814H19.1372V17.6299C19.1372 17.9535 18.8748 18.2158 18.5513 18.2158C18.2277 18.2158 17.9653 17.9535 17.9653 17.6299V15.4814H16.5981V17.2393C16.5981 17.5629 16.3358 17.8252 16.0122 17.8252C15.6886 17.8252 15.4263 17.5629 15.4263 17.2393V15.4814H14.0591V17.6299C14.0591 17.9535 13.7967 18.2158 13.4731 18.2158C13.1495 18.2158 12.8872 17.9535 12.8872 17.6299V15.4814H11.52V17.2393C11.52 17.5629 11.2577 17.8252 10.9341 17.8252C10.6105 17.8252 10.3481 17.5629 10.3481 17.2393V15.4814H8.98094V17.6299C8.98094 17.9535 8.71859 18.2158 8.395 18.2158C8.07141 18.2158 7.80906 17.9535 7.80906 17.6299V15.4814H6.44188V17.2393C6.44188 17.5629 6.17953 17.8252 5.85594 17.8252C5.53234 17.8252 5.27 17.5629 5.27 17.2393V16.6226L1.33301 20.5596H19.9184C20.242 20.5596 20.5044 20.2972 20.5044 19.9736V16.0674C20.5044 15.7438 20.242 15.4814 19.9184 15.4814Z" fill="#D1D2D2"/>
</svg>
