<?xml version="1.0" encoding="UTF-8"?>
<svg version="1.1" xmlns="http://www.w3.org/2000/svg" width="100" height="100">
<path d="M0 0 C0.66 0.66 1.32 1.32 2 2 C1.9375 4.4375 1.9375 4.4375 1 7 C-1 8.4375 -1 8.4375 -4 10 C-14.95734165 16.48411978 -21.34403554 23.8590448 -24.6015625 36.296875 C-24.73304687 36.85890625 -24.86453125 37.4209375 -25 38 C-23.02 38 -21.04 38 -19 38 C-17.875 40.3125 -17.875 40.3125 -17 43 C-17.66 43.99 -18.32 44.98 -19 46 C-22.125 46.1875 -22.125 46.1875 -25 46 C-21.93384382 56.82172768 -17.62544694 65.65210251 -8 72 C-3.48011395 74.18659093 1.10940323 75.86448213 6 77 C6 75.02 6 73.04 6 71 C8.3125 69.875 8.3125 69.875 11 69 C11.99 69.66 12.98 70.32 14 71 C14.1875 74.125 14.1875 74.125 14 77 C24.82172768 73.93384382 33.65210251 69.62544694 40 60 C42.18659093 55.48011395 43.86448213 50.89059677 45 46 C44.05125 46.04125 43.1025 46.0825 42.125 46.125 C39 46 39 46 37 44 C37.55555556 39.44444444 37.55555556 39.44444444 39 38 C40.99958364 37.95919217 43.00045254 37.95745644 45 38 C41.86999002 26.95290596 37.54212964 18.69343541 28 12 C25.9310013 10.85848348 23.85538809 9.82520331 21.69921875 8.859375 C20 8 20 8 18 6 C18.55555556 1.44444444 18.55555556 1.44444444 20 0 C27.46993826 -0.38350129 32.24941154 2.59121551 38 7 C38.86625 7.5775 39.7325 8.155 40.625 8.75 C47.99606741 15.73311649 53.74391265 25.51200575 54.09765625 35.85546875 C54.06542969 36.56316406 54.03320312 37.27085938 54 38 C54.804375 37.979375 55.60875 37.95875 56.4375 37.9375 C59 38 59 38 60 39 C60.125 42 60.125 42 60 45 C59 46 59 46 56.4375 46.0625 C55.633125 46.041875 54.82875 46.02125 54 46 C53.9175 47.27875 53.835 48.5575 53.75 49.875 C52.44730359 60.97397339 47.01377013 69.70504751 38.6796875 77.04296875 C31.56353084 82.40868816 23.0669347 86.41288409 14 86 C14.020625 86.804375 14.04125 87.60875 14.0625 88.4375 C14 91 14 91 13 92 C10 92.125 10 92.125 7 92 C6 91 6 91 5.9375 88.4375 C5.958125 87.633125 5.97875 86.82875 6 86 C4.72125 85.9175 3.4425 85.835 2.125 85.75 C-8.97397339 84.44730359 -17.70504751 79.01377013 -25.04296875 70.6796875 C-30.40868816 63.56353084 -34.41288409 55.0669347 -34 46 C-34.804375 46.020625 -35.60875 46.04125 -36.4375 46.0625 C-39 46 -39 46 -40 45 C-40.125 42 -40.125 42 -40 39 C-39 38 -39 38 -36.4375 37.9375 C-35.633125 37.958125 -34.82875 37.97875 -34 38 C-33.9175 36.700625 -33.835 35.40125 -33.75 34.0625 C-32.8977763 26.42849617 -29.47911071 20.15877722 -25 14 C-24.46375 13.195625 -23.9275 12.39125 -23.375 11.5625 C-17.30454036 5.01279355 -9.23818506 -0.821172 0 0 Z " fill="#FFFFFF" transform="translate(40,8)"/>
<path d="M0 0 C0.66 0 1.32 0 2 0 C4.14345242 4.6414866 6.27948655 9.28628644 8.40869141 13.93432617 C9.13419508 15.51533989 9.86172391 17.09542592 10.59130859 18.67456055 C11.639121 20.94339516 12.67962597 23.21545675 13.71875 25.48828125 C14.04685669 26.19463211 14.37496338 26.90098297 14.7130127 27.6287384 C16.061098 30.5935089 17 32.70363935 17 36 C13.41465669 34.92439701 10.2580894 33.62324584 7 31.8125 C4.38246128 30.49879189 3.11018886 30.00239541 0.125 29.9375 C-3.73470526 31.24979979 -7.23683887 33.0206123 -10.828125 34.94140625 C-13 36 -13 36 -15 36 C-14.34493863 31.57000873 -12.70093699 27.76258324 -10.83984375 23.73046875 C-10.53051407 23.04946609 -10.22118439 22.36846344 -9.90248108 21.66682434 C-8.91906176 19.50477304 -7.92840527 17.34612904 -6.9375 15.1875 C-6.2670967 13.71701626 -5.59716957 12.24631534 -4.92773438 10.77539062 C-3.29065903 7.18105558 -1.64708751 3.58975736 0 0 Z " fill="#FFFFFF" transform="translate(49,0)"/>
</svg>
