<?xml version="1.0" encoding="UTF-8"?>
<svg version="1.1" xmlns="http://www.w3.org/2000/svg" width="100" height="100">
<path d="M0 0 C1.7125296 -0.01925285 1.7125296 -0.01925285 3.45965576 -0.03889465 C5.31895721 -0.04997505 5.31895721 -0.04997505 7.21582031 -0.0612793 C8.48613098 -0.06935104 9.75644165 -0.07742279 11.06524658 -0.08573914 C13.75870419 -0.09959131 16.45203893 -0.11060399 19.14550781 -0.11816406 C22.58663115 -0.12920954 26.02710442 -0.16358628 29.4679985 -0.20333576 C32.75887443 -0.23585883 36.04980818 -0.24028631 39.34082031 -0.2487793 C40.57225769 -0.26628738 41.80369507 -0.28379547 43.07244873 -0.30183411 C53.71325023 -0.27486493 53.71325023 -0.27486493 58.54394531 4.17700195 C62.58477524 8.76388998 63.66735286 11.11667674 63.72094727 17.18383789 C63.74020012 19.07655426 63.74020012 19.07655426 63.75984192 21.00750732 C63.76801043 22.39212654 63.77545395 23.7767502 63.78222656 25.16137695 C63.78630209 25.85813789 63.79037762 26.55489883 63.79457664 27.27277374 C63.81544055 30.96252649 63.82973935 34.65224203 63.83911133 38.34204102 C63.85016091 42.14634106 63.88454214 45.95005377 63.92428303 49.75414658 C63.95048143 52.68476417 63.95880609 55.61524271 63.96239281 58.5459671 C63.96725256 59.94775599 63.97884929 61.34953892 63.9974308 62.75121307 C64.02188 64.71819374 64.01843177 66.68546046 64.01391602 68.65258789 C64.01978226 69.77018494 64.0256485 70.88778198 64.0316925 72.03924561 C63.24765136 77.08310876 60.68075756 80.1755245 56.91894531 83.48950195 C53.34097062 86.03174713 51.44945171 86.31140117 47.08789062 86.35400391 C45.37536102 86.37325676 45.37536102 86.37325676 43.62823486 86.39289856 C42.38870056 86.40028549 41.14916626 86.40767242 39.87207031 86.4152832 C38.60175964 86.42335495 37.33144897 86.4314267 36.02264404 86.43974304 C33.32918643 86.45359522 30.63585169 86.4646079 27.94238281 86.47216797 C24.50125948 86.48321345 21.0607862 86.51759019 17.61989212 86.55733967 C14.3290162 86.58986274 11.03808245 86.59429022 7.74707031 86.6027832 C6.51563293 86.62029129 5.28419556 86.63779938 4.01544189 86.65583801 C-6.62535961 86.62886884 -6.62535961 86.62886884 -11.45605469 82.17700195 C-15.49688461 77.59011393 -16.57946223 75.23732716 -16.63305664 69.17016602 C-16.64589188 67.9083551 -16.65872711 66.64654419 -16.67195129 65.34649658 C-16.6801198 63.96187736 -16.68756332 62.5772537 -16.69433594 61.19262695 C-16.69841146 60.49586601 -16.70248699 59.79910507 -16.70668602 59.08123016 C-16.72754992 55.39147742 -16.74184873 51.70176187 -16.7512207 48.01196289 C-16.76227028 44.20766285 -16.79665151 40.40395013 -16.8363924 36.59985733 C-16.8625908 33.66923973 -16.87091547 30.73876119 -16.87450218 27.8080368 C-16.87936194 26.40624792 -16.89095866 25.00446499 -16.90954018 23.60279083 C-16.93398938 21.63581016 -16.93054114 19.66854345 -16.92602539 17.70141602 C-16.93189163 16.58381897 -16.93775787 15.46622192 -16.94380188 14.3147583 C-16.15976073 9.27089515 -13.59286694 6.17847941 -9.83105469 2.86450195 C-6.25308 0.32225678 -4.36156109 0.04260273 0 0 Z M22.54394531 20.17700195 C22.54394531 24.79700195 22.54394531 29.41700195 22.54394531 34.17700195 C17.92394531 34.17700195 13.30394531 34.17700195 8.54394531 34.17700195 C8.54394531 35.49700195 8.54394531 36.81700195 8.54394531 38.17700195 C13.16394531 38.17700195 17.78394531 38.17700195 22.54394531 38.17700195 C22.54394531 42.79700195 22.54394531 47.41700195 22.54394531 52.17700195 C23.53394531 52.17700195 24.52394531 52.17700195 25.54394531 52.17700195 C25.54394531 47.55700195 25.54394531 42.93700195 25.54394531 38.17700195 C30.16394531 38.17700195 34.78394531 38.17700195 39.54394531 38.17700195 C39.54394531 36.85700195 39.54394531 35.53700195 39.54394531 34.17700195 C34.92394531 34.17700195 30.30394531 34.17700195 25.54394531 34.17700195 C25.54394531 29.55700195 25.54394531 24.93700195 25.54394531 20.17700195 C24.55394531 20.17700195 23.56394531 20.17700195 22.54394531 20.17700195 Z M-11.45605469 68.17700195 C-11.21095114 72.34376227 -10.86277593 74.65407465 -8.26855469 77.98950195 C-2.33141975 82.60727357 3.70160649 82.48469891 10.91113281 82.4777832 C11.90468781 82.48206833 12.8982428 82.48635345 13.92190552 82.49076843 C16.01807902 82.49649636 18.1142724 82.49702336 20.21044922 82.49267578 C23.4013902 82.48951932 26.59140026 82.51298262 29.78222656 82.53833008 C31.82519415 82.54060371 33.86816421 82.54130627 35.91113281 82.5402832 C36.85721405 82.54949295 37.80329529 82.5587027 38.77804565 82.56819153 C44.71562064 82.52714318 49.15491058 81.73436307 54.54394531 79.17700195 C57.18910834 76.13506447 58.44393453 74.3271259 58.79394531 70.30200195 C58.71144531 69.60075195 58.62894531 68.89950195 58.54394531 68.17700195 C57.82335937 68.66378418 57.10277344 69.15056641 56.36035156 69.65209961 C51.12484607 72.24715398 45.18378849 71.6038494 39.48144531 71.57543945 C38.21679443 71.57830963 36.95214355 71.58117981 35.64916992 71.58413696 C32.97933928 71.58617554 30.31033686 71.58217797 27.640625 71.56811523 C24.23105296 71.55102363 20.82218952 71.56087281 17.41264343 71.57883263 C14.14388588 71.59232418 10.87521214 71.58285806 7.60644531 71.57543945 C5.77811157 71.58454849 5.77811157 71.58454849 3.9128418 71.59384155 C-6.52611986 71.50735372 -6.52611986 71.50735372 -11.45605469 68.17700195 Z " fill="#FFFFFF" transform="translate(26.4560546875,7.822998046875)"/>
</svg>
