<?xml version="1.0" encoding="UTF-8"?>
<svg version="1.1" xmlns="http://www.w3.org/2000/svg" width="50" height="50">
<path d="M0 0 C2.89037303 2.26203107 4.57487033 3.99031704 6 7.375 C6 12.63800755 3.31431414 17.05438793 0 21 C0.99 21.33 1.98 21.66 3 22 C2.67 23.32 2.34 24.64 2 26 C0.68 25.34 -0.64 24.68 -2 24 C-2.99 24.66 -3.98 25.32 -5 26 C-10.13826404 21.3021586 -14.41532945 16.39108917 -15.625 9.375 C-14.78399955 4.83359757 -13.29032626 3.21380704 -10 0 C-6.1544104 -1.2818632 -3.93271581 -0.94927623 0 0 Z M-10.5 5.125 C-12.30550624 7.89540023 -12.30550624 7.89540023 -11.5625 10.875 C-9.70094626 14.59810748 -7.51838648 17.68633358 -5 21 C-2.03925765 18.24344678 0.35509202 15.72268649 2 12 C2.0127038 8.33635192 2.0127038 8.33635192 1 5 C-3.35132419 2.09911721 -6.39304628 1.63408933 -10.5 5.125 Z " fill="#FFFFFF" transform="translate(18,21)"/>
<path d="M0 0 C3.5625 0.3125 3.5625 0.3125 5.5 1.4375 C7.12951554 4.31311566 7.07393897 6.05207658 6.5625 9.3125 C5.08003485 11.58252476 3.44719231 13.33357308 1.5625 15.3125 C-0.1875 15.25 -0.1875 15.25 -2.4375 14.3125 C-6.49515969 8.60984313 -6.49515969 8.60984313 -6.3125 4.5 C-4.84898296 0.84120741 -3.96155302 0.36014118 0 0 Z M-1.4375 3.3125 C-1.7675 4.9625 -2.0975 6.6125 -2.4375 8.3125 C-0.4575 9.3025 -0.4575 9.3025 1.5625 10.3125 C2.2225 8.6625 2.8825 7.0125 3.5625 5.3125 C2.9025 4.6525 2.2425 3.9925 1.5625 3.3125 C0.5725 3.3125 -0.4175 3.3125 -1.4375 3.3125 Z " fill="#FFFFFF" transform="translate(36.4375,4.6875)"/>
<path d="M0 0 C3.125 0.375 3.125 0.375 6 1 C6.6875 3.3125 6.6875 3.3125 7 6 C5.875 7.875 5.875 7.875 4 9 C-0.42105263 8.57894737 -0.42105263 8.57894737 -2 7 C-2.1875 4.5625 -2.1875 4.5625 -2 2 C-1.34 1.34 -0.68 0.68 0 0 Z " fill="#FFFFFF" transform="translate(11,26)"/>
<path d="M0 0 C1.98 0.495 1.98 0.495 4 1 C3.67 1.99 3.34 2.98 3 4 C1.68 3.67 0.36 3.34 -1 3 C-0.67 2.01 -0.34 1.02 0 0 Z " fill="#FFFFFF" transform="translate(35,43)"/>
<path d="M0 0 C1.98 0.495 1.98 0.495 4 1 C3.67 1.99 3.34 2.98 3 4 C1.68 3.67 0.36 3.34 -1 3 C-0.67 2.01 -0.34 1.02 0 0 Z " fill="#FFFFFF" transform="translate(29,43)"/>
<path d="M0 0 C1.32 0 2.64 0 4 0 C3.67 1.32 3.34 2.64 3 4 C2.01 4 1.02 4 0 4 C0 2.68 0 1.36 0 0 Z " fill="#FFFFFF" transform="translate(23,43)"/>
<path d="M0 0 C0.99 0.33 1.98 0.66 3 1 C2.67 2.32 2.34 3.64 2 5 C1.01 4.34 0.02 3.68 -1 3 C-0.67 2.01 -0.34 1.02 0 0 Z " fill="#FFFFFF" transform="translate(37,38)"/>
<path d="M0 0 C1.32 0.33 2.64 0.66 4 1 C4 1.99 4 2.98 4 4 C2.68 3.67 1.36 3.34 0 3 C0 2.01 0 1.02 0 0 Z " fill="#FFFFFF" transform="translate(32,34)"/>
<path d="M0 0 C1.32 0.33 2.64 0.66 4 1 C4 1.99 4 2.98 4 4 C2.68 3.67 1.36 3.34 0 3 C0 2.01 0 1.02 0 0 Z " fill="#FFFFFF" transform="translate(28,30)"/>
<path d="M0 0 C1.32 0.33 2.64 0.66 4 1 C3.67 1.99 3.34 2.98 3 4 C2.01 3.67 1.02 3.34 0 3 C0 2.01 0 1.02 0 0 Z " fill="#FFFFFF" transform="translate(40,43)"/>
<path d="M0 0 C0.99 0.33 1.98 0.66 3 1 C2.67 1.99 2.34 2.98 2 4 C1.01 4 0.02 4 -1 4 C-0.67 2.68 -0.34 1.36 0 0 Z " fill="#FFFFFF" transform="translate(30,25)"/>
<path d="M0 0 C0.99 0 1.98 0 3 0 C2.67 1.32 2.34 2.64 2 4 C1.01 3.67 0.02 3.34 -1 3 C-0.67 2.01 -0.34 1.02 0 0 Z " fill="#FFFFFF" transform="translate(33,21)"/>
</svg>
