<?xml version="1.0" encoding="UTF-8"?>
<svg version="1.1" xmlns="http://www.w3.org/2000/svg" width="50" height="50">
<path d="M0 0 C1 1 1 1 1.3125 4.625 C1.21588606 9.14170185 -0.02623069 12.57780516 -3 16 C-4.49960993 17.1125265 -6.02250873 18.19407765 -7.5625 19.25 C-11.49699766 22.07229489 -12.70744763 24.10374905 -13.8125 28.8125 C-13.96332031 29.74707031 -14.11414063 30.68164062 -14.26953125 31.64453125 C-15 34 -15 34 -17.07421875 35.32421875 C-17.70972656 35.54722656 -18.34523438 35.77023438 -19 36 C-20.4606285 33.35261084 -21 32.10551666 -21 29 C-21.99 29 -22.98 29 -24 29 C-24.061875 29.598125 -24.12375 30.19625 -24.1875 30.8125 C-25 33 -25 33 -27.25 34.75 C-30.12139874 36.05518125 -31.89097466 36.26648789 -35 36 C-34.39086294 28.56852792 -34.39086294 28.56852792 -32.625 26 C-31 25 -31 25 -28 25 C-28 24.01 -28 23.02 -28 22 C-29.98 21.67 -31.96 21.34 -34 21 C-34 19.68 -34 18.36 -34 17 C-31.16077595 15.79548071 -28.75805606 14.96348016 -25.6875 14.5 C-20.81551029 12.51817368 -19.00507984 9.48252463 -15.90234375 5.35546875 C-11.41722862 -0.19796949 -6.65906596 -0.4514621 0 0 Z M-7 2 C-5.95125002 4.62187494 -5.35068687 5.79371361 -2.875 7.25 C-2.25625 7.4975 -1.6375 7.745 -1 8 C-1 6.02 -1 4.04 -1 2 C-2.98 2 -4.96 2 -7 2 Z M-12.6484375 5.28515625 C-16.54317071 9.29444044 -19.87628313 13.36175374 -23 18 C-22.690625 18.61875 -22.38125 19.2375 -22.0625 19.875 C-21.375 21.25 -20.6875 22.625 -20 24 C-14.91057027 23.63174813 -12.17872345 20.83539792 -8.6875 17.4375 C-8.13771484 16.91736328 -7.58792969 16.39722656 -7.02148438 15.86132812 C-5.67269654 14.58291183 -4.33519564 13.29260567 -3 12 C-3.77832416 8.21956837 -4.98139863 6.48590701 -8 4 C-10.95404449 3.69257706 -10.95404449 3.69257706 -12.6484375 5.28515625 Z M-32 19 C-29.525 19.495 -29.525 19.495 -27 20 C-26.34 19.01 -25.68 18.02 -25 17 C-28.10551666 17 -29.35261084 17.5393715 -32 19 Z M-22 24 C-21.34 24.66 -20.68 25.32 -20 26 C-20 25.34 -20 24.68 -20 24 C-20.66 24 -21.32 24 -22 24 Z M-17 26 C-17.66 26.66 -18.32 27.32 -19 28 C-18.67958603 30.60280568 -18.67958603 30.60280568 -18 33 C-16.87483915 31.16715557 -16.87483915 31.16715557 -16 29 C-16.33 28.01 -16.66 27.02 -17 26 Z M-29 28 C-29.33 28.99 -29.66 29.98 -30 31 C-29.01 30.67 -28.02 30.34 -27 30 C-27 29.34 -27 28.68 -27 28 C-27.66 28 -28.32 28 -29 28 Z M-33 30 C-33 31.32 -33 32.64 -33 34 C-31.68 33.67 -30.36 33.34 -29 33 C-29.99 33 -30.98 33 -32 33 C-32.33 32.01 -32.66 31.02 -33 30 Z " fill="#FFFFFF" transform="translate(42,7)"/>
<path d="M0 0 C2.9375 0.1875 2.9375 0.1875 3.9375 1.1875 C4.125 4.125 4.125 4.125 3.9375 7.1875 C1.9375 9.1875 1.9375 9.1875 -0.5625 9.4375 C-3.0625 9.1875 -3.0625 9.1875 -5.0625 7.1875 C-5.3125 4.6875 -5.3125 4.6875 -5.0625 2.1875 C-3.0625 0.1875 -3.0625 0.1875 0 0 Z M-2.0625 3.1875 C-1.7325 4.1775 -1.4025 5.1675 -1.0625 6.1875 C0.2575 5.5275 1.5775 4.8675 2.9375 4.1875 C1.2875 3.8575 -0.3625 3.5275 -2.0625 3.1875 Z " fill="#FFFFFF" transform="translate(31.0625,14.8125)"/>
</svg>
