<?xml version="1.0" encoding="UTF-8"?>
<svg version="1.1" xmlns="http://www.w3.org/2000/svg" width="24" height="24">
<path d="M0 0 C3.63 0 7.26 0 11 0 C11 7.92 11 15.84 11 24 C7.37 24 3.74 24 0 24 C0 16.08 0 8.16 0 0 Z M2 2 C2 8.6 2 15.2 2 22 C4.31 22 6.62 22 9 22 C9 15.4 9 8.8 9 2 C6.69 2 4.38 2 2 2 Z " fill="#FFFFFF" transform="translate(13,0)"/>
<path d="M0 0 C3.63 0 7.26 0 11 0 C11 7.92 11 15.84 11 24 C7.37 24 3.74 24 0 24 C0 16.08 0 8.16 0 0 Z M2 2 C2 8.6 2 15.2 2 22 C4.31 22 6.62 22 9 22 C9 15.4 9 8.8 9 2 C6.69 2 4.38 2 2 2 Z " fill="#FFFFFF" transform="translate(0,0)"/>
</svg>
