<?xml version="1.0" encoding="UTF-8"?>
<svg version="1.1" xmlns="http://www.w3.org/2000/svg" width="50" height="50">
<path d="M0 0 C0.33 0.66 0.66 1.32 1 2 C0.01 2.66 -0.98 3.32 -2 4 C4.22858738 7.93619337 4.22858738 7.93619337 11.25 8.5 C12.1575 8.005 13.065 7.51 14 7 C15.11375 6.46375 16.2275 5.9275 17.375 5.375 C18.24125 4.92125 19.1075 4.4675 20 4 C19.34 3.01 18.68 2.02 18 1 C20 -0.25 20 -0.25 23 -1 C25.85268897 0.02296056 28.40624165 1.44245777 31 3 C31 3.66 31 4.32 31 5 C28.03 6.32 25.06 7.64 22 9 C26.455 11.475 26.455 11.475 31 14 C31 14.66 31 15.32 31 16 C27.8033513 17.54631716 24.59118407 19.05729007 21.375 20.5625 C20.01955078 21.21895508 20.01955078 21.21895508 18.63671875 21.88867188 C10.16757775 25.81414964 10.16757775 25.81414964 5 24 C1.82732218 22.74127063 -1.27643316 21.36817799 -4.375 19.9375 C-5.20644531 19.56044922 -6.03789062 19.18339844 -6.89453125 18.79492188 C-8.93265588 17.86956644 -10.9675867 16.9378163 -13 16 C-12 13 -12 13 -10.15234375 11.83203125 C-9.42144531 11.49558594 -8.69054687 11.15914062 -7.9375 10.8125 C-5.9884375 9.9153125 -5.9884375 9.9153125 -4 9 C-8.455 7.02 -8.455 7.02 -13 5 C-12 2 -12 2 -8.75 0.25 C-5.0934345 -0.96885517 -3.54194083 -1.35427149 0 0 Z " fill="#FFFFFF" transform="translate(16,22)"/>
<path d="M0 0 C0.99592163 0.45669067 0.99592163 0.45669067 2.01196289 0.92260742 C3.88877716 1.79962565 5.72560116 2.73007394 7.5625 3.6875 C8.18962891 4.00783203 8.81675781 4.32816406 9.46289062 4.65820312 C10.97814795 5.43318206 12.48951872 6.21575296 14 7 C14 7.66 14 8.32 14 9 C10.96762347 10.51933109 7.92278779 12.01185728 4.875 13.5 C3.59109375 14.14388672 3.59109375 14.14388672 2.28125 14.80078125 C-6.18374464 18.90304788 -6.18374464 18.90304788 -11 18 C-14.39414022 16.69359299 -17.62572388 15.12953155 -20.875 13.5 C-21.75414062 13.07074219 -22.63328125 12.64148437 -23.5390625 12.19921875 C-25.69808171 11.14317674 -27.85119372 10.07663021 -30 9 C-30 8.34 -30 7.68 -30 7 C-26.71190864 5.22125546 -23.39217189 3.51195024 -20.0625 1.8125 C-19.13630859 1.31041016 -18.21011719 0.80832031 -17.25585938 0.29101562 C-10.45531696 -3.12118636 -6.77339046 -3.46139303 0 0 Z " fill="#FFFFFF" transform="translate(33,7)"/>
</svg>
