<?xml version="1.0" encoding="UTF-8"?>
<svg version="1.1" xmlns="http://www.w3.org/2000/svg" width="50" height="50">
<path d="M0 0 C1.32 0 2.64 0 4 0 C5.33838733 2.45570175 6.67086232 4.91429916 8 7.375 C8.3815625 8.07367188 8.763125 8.77234375 9.15625 9.4921875 C12 14.7734375 12 14.7734375 12 17 C14.40575607 14.81482901 15.79535581 12.74080329 17.1875 9.8125 C17.53167969 9.09707031 17.87585937 8.38164062 18.23046875 7.64453125 C18.61138672 6.83048828 18.61138672 6.83048828 19 6 C20.32 6 21.64 6 23 6 C25.01372283 9.5757862 27.00853604 13.16177664 29 16.75 C29.57234375 17.76578125 30.1446875 18.7815625 30.734375 19.828125 C31.27578125 20.8078125 31.8171875 21.7875 32.375 22.796875 C32.87773438 23.69760742 33.38046875 24.59833984 33.8984375 25.52636719 C35 28 35 28 35 32 C18.5 32 2 32 -15 32 C-14.08750942 27.4375471 -12.97084892 24.65629839 -10.83984375 20.60546875 C-10.53051407 20.01325027 -10.22118439 19.4210318 -9.90248108 18.81086731 C-8.92003983 16.93325402 -7.92893752 15.06037579 -6.9375 13.1875 C-6.26699947 11.9098087 -5.5970714 10.63181682 -4.92773438 9.35351562 C-3.29176712 6.23217084 -1.64800405 3.11500977 0 0 Z M1 5 C-1.00661684 8.78820084 -3.0041624 12.58111052 -5 16.375 C-5.57234375 17.45523438 -6.1446875 18.53546875 -6.734375 19.6484375 C-7.27578125 20.6796875 -7.8171875 21.7109375 -8.375 22.7734375 C-8.87773437 23.72653809 -9.38046875 24.67963867 -9.8984375 25.66162109 C-11.14205363 27.87074059 -11.14205363 27.87074059 -11 30 C-2.42 30 6.16 30 15 30 C13.66382681 25.99148043 12.54961084 22.8749126 10.6171875 19.2578125 C10.17246094 18.41992188 9.72773438 17.58203125 9.26953125 16.71875 C8.80933594 15.8628125 8.34914063 15.006875 7.875 14.125 C7.17310547 12.80628906 7.17310547 12.80628906 6.45703125 11.4609375 C5.3087907 9.30505729 4.15636097 7.15153223 3 5 C2.34 5 1.68 5 1 5 Z M20 11 C19.12808053 12.38481328 18.27809616 13.78345246 17.4375 15.1875 C16.96183594 15.96480469 16.48617188 16.74210937 15.99609375 17.54296875 C14.37941329 21.53078056 15.56223312 23.96012186 17.17578125 27.79296875 C18.84346389 30.30130562 18.84346389 30.30130562 21.91796875 30.48828125 C22.99691406 30.43027344 24.07585938 30.37226562 25.1875 30.3125 C26.81751953 30.24482422 26.81751953 30.24482422 28.48046875 30.17578125 C29.31191406 30.11777344 30.14335938 30.05976562 31 30 C29.6077541 25.37324343 27.70479016 21.35313769 25.375 17.125 C24.74335937 15.97257812 24.11171875 14.82015625 23.4609375 13.6328125 C22.97882812 12.76398437 22.49671875 11.89515625 22 11 C21.34 11 20.68 11 20 11 Z " fill="#FFFFFF" transform="translate(15,18)"/>
<path d="M0 0 C1.75 0.3125 1.75 0.3125 4 1 C4.86625 1.2475 5.7325 1.495 6.625 1.75 C9 3 9 3 10.25 5.375 C10.4975 6.24125 10.745 7.1075 11 8 C11.2475 8.721875 11.495 9.44375 11.75 10.1875 C11.87375 11.0846875 11.87375 11.0846875 12 12 C11.34 12.66 10.68 13.32 10 14 C9.896875 14.66 9.79375 15.32 9.6875 16 C9 18 9 18 6.6875 19.1875 C5.800625 19.455625 4.91375 19.72375 4 20 C3.278125 20.2475 2.55625 20.495 1.8125 20.75 C0.9153125 20.87375 0.9153125 20.87375 0 21 C-0.66 20.34 -1.32 19.68 -2 19 C-2.66 18.896875 -3.32 18.79375 -4 18.6875 C-6 18 -6 18 -7.1875 15.6875 C-7.455625 14.800625 -7.72375 13.91375 -8 13 C-8.2475 12.278125 -8.495 11.55625 -8.75 10.8125 C-8.8325 10.214375 -8.915 9.61625 -9 9 C-8.34 8.34 -7.68 7.68 -7 7 C-6.896875 6.34 -6.79375 5.68 -6.6875 5 C-6.3471875 4.01 -6.3471875 4.01 -6 3 C-3.5 1.8125 -3.5 1.8125 -1 1 C-0.67 0.67 -0.34 0.34 0 0 Z M-4 5 C-4.84098656 9.01804691 -5.05404945 12.01803543 -4 16 C0.01804691 16.84098656 3.01803543 17.05404945 7 16 C7.84098656 11.98195309 8.05404945 8.98196457 7 5 C2.98195309 4.15901344 -0.01803543 3.94595055 -4 5 Z " fill="#FFFFFF" transform="translate(38,0)"/>
<path d="M0 0 C3.5 0.125 3.5 0.125 4.5 1.125 C4.625 4.625 4.625 4.625 4.5 8.125 C3.5 9.125 3.5 9.125 0 9.25 C-3.5 9.125 -3.5 9.125 -4.5 8.125 C-4.625 4.625 -4.625 4.625 -4.5 1.125 C-3.5 0.125 -3.5 0.125 0 0 Z M-1.5 3.125 C-1.5 4.115 -1.5 5.105 -1.5 6.125 C-0.51 6.125 0.48 6.125 1.5 6.125 C1.5 5.135 1.5 4.145 1.5 3.125 C0.51 3.125 -0.48 3.125 -1.5 3.125 Z " fill="#FFFFFF" transform="translate(39.5,5.875)"/>
</svg>
