<?xml version="1.0" encoding="UTF-8"?>
<svg version="1.1" xmlns="http://www.w3.org/2000/svg" width="66" height="66">
<path d="M0 0 C0.99 0.66 1.98 1.32 3 2 C4.27875 1.938125 5.5575 1.87625 6.875 1.8125 C10.52999968 1.69785979 10.89236127 1.914786 14 4.375 C16 7 16 7 16 9 C18.475 9.495 18.475 9.495 21 10 C21.495 11.485 21.495 11.485 22 13 C22.78375 13.103125 23.5675 13.20625 24.375 13.3125 C27 14 27 14 29 17 C28.54716981 23.45283019 28.54716981 23.45283019 26 26 C24.18519592 26.26742554 24.18519592 26.26742554 21.96508789 26.29052734 C20.71853172 26.3096669 20.71853172 26.3096669 19.4467926 26.32919312 C18.09834511 26.33253159 18.09834511 26.33253159 16.72265625 26.3359375 C15.80036728 26.3425943 14.87807831 26.3492511 13.92784119 26.35610962 C11.97510781 26.36624532 10.02233973 26.37092636 8.06958008 26.37060547 C5.07770872 26.37497777 2.08731317 26.41128479 -0.90429688 26.44921875 C-2.79947411 26.45508682 -4.69465837 26.45905628 -6.58984375 26.4609375 C-7.9352549 26.48249405 -7.9352549 26.48249405 -9.30784607 26.50448608 C-15.46512552 26.45906795 -15.46512552 26.45906795 -18.09985352 24.19775391 C-19.45808244 20.88156817 -18.82341963 18.42035846 -18 15 C-17.34 14.34 -16.68 13.68 -16 13 C-15.67320816 11.553178 -15.40919648 10.09160747 -15.1875 8.625 C-14.50126737 5.3965874 -14.06094296 4.07571702 -11.9375 1.4375 C-7.96341481 -0.50726509 -4.35699826 -0.70168886 0 0 Z M-8.3125 5.4375 C-8.869375 5.953125 -9.42625 6.46875 -10 7 C-9.67 8.32 -9.34 9.64 -9 11 C-8.34 9.68 -7.68 8.36 -7 7 C-2.25 6.875 -2.25 6.875 0 8 C-0.33 7.01 -0.66 6.02 -1 5 C-4.79735079 3.82620426 -4.79735079 3.82620426 -8.3125 5.4375 Z " fill="#FFFFFF" transform="translate(25,36)"/>
<path d="M0 0 C3.34192692 0.24453124 4.60543557 0.60543557 7 3 C7 3.99 7 4.98 7 6 C8.32 6.33 9.64 6.66 11 7 C11.04241723 9.33294775 11.04092937 11.66702567 11 14 C8.58183834 16.41816166 2.31222181 15.18547019 -0.9375 15.1875 C-1.96552734 15.19974609 -2.99355469 15.21199219 -4.05273438 15.22460938 C-5.52516602 15.22750977 -5.52516602 15.22750977 -7.02734375 15.23046875 C-8.38460571 15.23663208 -8.38460571 15.23663208 -9.76928711 15.24291992 C-12 15 -12 15 -14 13 C-14.5 10.625 -14.5 10.625 -14 8 C-10.40707352 4.99196852 -7.51483377 3.85415774 -3 3 C-2.505 2.46375 -2.01 1.9275 -1.5 1.375 C-1.005 0.92125 -0.51 0.4675 0 0 Z " fill="#FFFFFF" transform="translate(51,6)"/>
<path d="M0 0 C3.48116653 4.1028034 4.58367513 9.23292638 5.0625 14.5 C4.75 17.0625 4.75 17.0625 2.75 19.0625 C0.3125 19.5 0.3125 19.5 -2.25 19.0625 C-3.27137457 17.40884594 -4.26612294 15.73873498 -5.25 14.0625 C-7.17995412 12.44927796 -9.19727068 11.01076379 -11.2421875 9.546875 C-13.89317939 7.58699773 -16.0600287 5.52621772 -18.25 3.0625 C-18.25 2.4025 -18.25 1.7425 -18.25 1.0625 C-5.32692308 -2.21955128 -5.32692308 -2.21955128 0 0 Z " fill="#FFFFFF" transform="translate(57.25,35.9375)"/>
<path d="M0 0 C3.5 0.25 3.5 0.25 5.5 2.25 C5.75 5.75 5.75 5.75 5.5 9.25 C3.5 11.25 3.5 11.25 0 11.5 C-3.5 11.25 -3.5 11.25 -5.5 9.25 C-5.75 5.75 -5.75 5.75 -5.5 2.25 C-3.5 0.25 -3.5 0.25 0 0 Z " fill="#FFFFFF" transform="translate(18.5,12.75)"/>
<path d="M0 0 C0.99 0.33 1.98 0.66 3 1 C2.34 2.32 1.68 3.64 1 5 C-0.32 5 -1.64 5 -3 5 C-1.125 1.125 -1.125 1.125 0 0 Z " fill="#FFFFFF" transform="translate(27,7)"/>
<path d="M0 0 C1.32 0.66 2.64 1.32 4 2 C4 3.32 4 4.64 4 6 C2.68 5.34 1.36 4.68 0 4 C0 2.68 0 1.36 0 0 Z " fill="#FFFFFF" transform="translate(8,7)"/>
<path d="M0 0 C0.99 0.33 1.98 0.66 3 1 C1.25 4.875 1.25 4.875 -1 6 C-1.66 5.67 -2.32 5.34 -3 5 C-1.125 1.125 -1.125 1.125 0 0 Z " fill="#FFFFFF" transform="translate(10,24)"/>
<path d="M0 0 C1.32 0.66 2.64 1.32 4 2 C4 2.99 4 3.98 4 5 C3.01 5 2.02 5 1 5 C0.34 3.68 -0.32 2.36 -1 1 C-0.67 0.67 -0.34 0.34 0 0 Z " fill="#FFFFFF" transform="translate(25,24)"/>
<path d="M0 0 C0.99 0 1.98 0 3 0 C3 1.65 3 3.3 3 5 C2.01 5 1.02 5 0 5 C0 3.35 0 1.7 0 0 Z " fill="#FFFFFF" transform="translate(17,28)"/>
<path d="M0 0 C1.65 0 3.3 0 5 0 C5 0.99 5 1.98 5 3 C3.35 3 1.7 3 0 3 C0 2.01 0 1.02 0 0 Z " fill="#FFFFFF" transform="translate(28,17)"/>
<path d="M0 0 C1.65 0 3.3 0 5 0 C5 0.99 5 1.98 5 3 C3.35 3 1.7 3 0 3 C0 2.01 0 1.02 0 0 Z " fill="#FFFFFF" transform="translate(4,17)"/>
<path d="M0 0 C0.99 0 1.98 0 3 0 C3 1.65 3 3.3 3 5 C2.01 5 1.02 5 0 5 C0 3.35 0 1.7 0 0 Z " fill="#FFFFFF" transform="translate(17,4)"/>
</svg>
