<?xml version="1.0" encoding="UTF-8"?>
<svg version="1.1" xmlns="http://www.w3.org/2000/svg" width="100" height="100">
<path d="M0 0 C0.64324219 0.350625 1.28648438 0.70125 1.94921875 1.0625 C7.09252599 4.27567242 10.07007011 8.77939764 13 14 C13.34289062 14.59296875 13.68578125 15.1859375 14.0390625 15.796875 C17.49225073 23.09052491 17.23638693 33.4201442 15.16796875 41.08203125 C14.21555527 43.4612814 13.15718358 45.71519593 12 48 C11.34 49.65 10.68 51.3 10 53 C17.92 60.92 25.84 68.84 34 77 C32.38262276 80.23475448 31.52370777 81.70572021 29 84 C25.13084637 82.42824389 22.82112822 79.96502822 19.97265625 76.95703125 C19.0064484 75.95581145 18.03963307 74.95517759 17.07226562 73.95507812 C15.56026972 72.38101625 14.05343367 70.80287502 12.55688477 69.21411133 C11.10471536 67.67737259 9.63436768 66.16009556 8.16015625 64.64453125 C7.29011963 63.73034424 6.42008301 62.81615723 5.52368164 61.87426758 C3.17316459 59.71743089 3.17316459 59.71743089 0.38452148 60.11206055 C-2.18849481 61.03209602 -2.18849481 61.03209602 -5.3125 62.5625 C-13.17470167 65.57609533 -23.75297758 65.25452529 -31.5625 62.3125 C-33.06479531 61.58777463 -34.54717643 60.81940328 -36 60 C-36.96486328 59.4740625 -36.96486328 59.4740625 -37.94921875 58.9375 C-43.09252599 55.72432758 -46.07007011 51.22060236 -49 46 C-49.34289062 45.40703125 -49.68578125 44.8140625 -50.0390625 44.203125 C-53.50668093 36.87899635 -53.13907128 26.72163418 -51.2734375 18.98828125 C-50.34436871 16.52209457 -49.29375631 14.29386398 -48 12 C-47.649375 11.35675781 -47.29875 10.71351562 -46.9375 10.05078125 C-43.72432758 4.90747401 -39.22060236 1.92992989 -34 -1 C-33.11054687 -1.51433594 -33.11054687 -1.51433594 -32.203125 -2.0390625 C-22.517475 -6.62474635 -9.06835379 -5.11461884 0 0 Z M-42 12 C-47.09105238 20.00442917 -47.71612339 27.62901394 -47 37 C-45.19183983 44.36335107 -40.28636615 51.27374506 -33.875 55.3515625 C-25.8371213 59.45915493 -17.23604399 60.53133625 -8.359375 58.3515625 C-0.39234902 55.0923246 5.79691768 49.67058816 9.30859375 41.796875 C12.11714696 34.49781017 12.4312509 25.44305775 9.4375 18.125 C4.68335744 9.16719455 -1.49614479 4.16795174 -11 1 C-23.88681747 -0.010406 -33.22519621 2.15316136 -42 12 Z " fill="#FFFFFF" transform="translate(60,10)"/>
<path d="M0 0 C1.32 0 2.64 0 4 0 C4 4.62 4 9.24 4 14 C8.62 14 13.24 14 18 14 C18 15.32 18 16.64 18 18 C13.38 18 8.76 18 4 18 C4 22.62 4 27.24 4 32 C2.68 32 1.36 32 0 32 C0 27.38 0 22.76 0 18 C-4.62 18 -9.24 18 -14 18 C-14 16.68 -14 15.36 -14 14 C-9.38 14 -4.76 14 0 14 C0 9.38 0 4.76 0 0 Z " fill="#FFFFFF" transform="translate(40,24)"/>
</svg>
